<svg id="svg" version="1.1" xmlns="http://www.w3.org/2000/svg" xmlns:xlink="http://www.w3.org/1999/xlink" width="400" height="381.99356913183277" viewBox="0, 0, 400,381.99356913183277"><g id="svgg"><path id="path0" d="M215.759 41.921 C 214.323 42.071,213.715 42.789,215.024 42.789 C 215.789 42.789,217.383 44.290,217.383 45.010 C 217.383 45.259,217.611 45.463,217.889 45.463 C 218.618 45.463,220.184 47.241,219.884 47.727 C 219.744 47.953,219.828 48.138,220.069 48.138 C 220.711 48.138,221.893 49.695,222.170 50.907 C 222.302 51.485,222.589 51.958,222.807 51.958 C 223.024 51.958,223.113 52.302,223.003 52.722 C 222.873 53.219,222.991 53.486,223.340 53.486 C 223.636 53.486,223.878 53.820,223.878 54.228 C 223.878 54.636,224.034 55.066,224.224 55.183 C 224.414 55.301,224.480 55.741,224.370 56.161 C 224.261 56.581,224.344 56.925,224.556 56.925 C 225.172 56.925,225.460 58.118,224.984 58.692 C 224.643 59.103,224.693 59.217,225.216 59.217 C 225.749 59.217,225.839 59.440,225.661 60.328 C 225.502 61.125,225.605 61.504,226.026 61.665 C 226.459 61.831,226.547 62.191,226.361 63.037 C 226.216 63.698,226.267 64.183,226.481 64.183 C 227.050 64.183,227.392 65.407,226.947 65.852 C 226.375 66.423,226.462 66.858,227.148 66.858 C 227.657 66.858,227.706 67.251,227.481 69.532 C 227.295 71.420,227.344 72.206,227.649 72.206 C 227.886 72.206,228.080 72.636,228.080 73.161 C 228.080 73.687,227.883 74.117,227.642 74.117 C 227.328 74.117,227.270 74.990,227.439 77.173 C 227.634 79.713,227.579 80.229,227.113 80.229 C 226.426 80.229,226.398 80.752,227.030 81.786 C 227.432 82.444,227.400 82.647,226.832 83.069 C 226.398 83.391,226.250 83.813,226.416 84.247 C 226.571 84.649,226.457 85.096,226.137 85.347 C 225.840 85.579,225.555 86.457,225.504 87.297 C 225.450 88.166,225.146 89.020,224.797 89.277 C 224.459 89.526,224.297 89.914,224.437 90.140 C 224.576 90.365,224.464 90.637,224.188 90.744 C 223.476 91.019,223.468 93.601,224.180 93.601 C 224.543 93.601,224.663 93.862,224.531 94.365 C 224.421 94.785,224.507 95.129,224.722 95.129 C 224.937 95.129,225.023 95.473,224.913 95.893 C 224.783 96.390,224.901 96.657,225.251 96.657 C 225.546 96.657,225.788 97.001,225.788 97.421 C 225.788 97.841,225.972 98.185,226.198 98.185 C 226.424 98.185,226.546 98.486,226.471 98.854 C 226.395 99.222,226.597 99.726,226.920 99.974 C 227.400 100.344,227.417 100.517,227.014 100.926 C 226.607 101.338,226.457 101.326,226.160 100.856 C 225.857 100.377,225.799 100.397,225.794 100.981 C 225.790 101.486,225.592 101.613,225.069 101.447 C 224.606 101.300,224.266 101.438,224.114 101.835 C 223.984 102.174,223.663 102.379,223.400 102.291 C 223.137 102.202,222.751 102.356,222.541 102.632 C 222.330 102.908,221.557 103.181,220.821 103.239 C 220.086 103.296,219.294 103.586,219.062 103.883 C 218.828 104.181,218.359 104.315,218.011 104.181 C 217.596 104.022,217.383 104.139,217.383 104.527 C 217.383 104.940,217.157 105.042,216.619 104.871 C 216.181 104.732,215.855 104.802,215.855 105.036 C 215.855 105.261,215.595 105.444,215.277 105.444 C 214.959 105.444,214.400 105.603,214.035 105.798 C 213.044 106.327,211.883 106.720,211.536 106.644 C 211.368 106.607,210.962 106.843,210.636 107.170 C 210.179 107.627,209.921 107.661,209.511 107.321 C 209.091 106.972,208.978 107.016,208.978 107.524 C 208.978 107.996,208.772 108.105,208.214 107.927 C 207.656 107.750,207.450 107.859,207.450 108.328 C 207.450 108.776,207.225 108.913,206.710 108.778 C 206.265 108.662,205.883 108.813,205.751 109.159 C 205.615 109.512,205.237 109.657,204.771 109.535 C 204.353 109.425,204.011 109.512,204.011 109.727 C 204.011 109.942,203.679 110.031,203.272 109.924 C 202.827 109.808,202.445 109.959,202.312 110.305 C 202.177 110.658,201.799 110.803,201.333 110.681 C 200.915 110.572,200.573 110.614,200.573 110.775 C 200.573 111.300,204.916 111.566,205.230 111.060 C 205.416 110.762,206.490 110.622,208.297 110.659 C 209.827 110.690,211.165 110.587,211.270 110.430 C 211.566 109.987,214.682 109.676,214.922 110.065 C 215.269 110.625,217.006 110.461,217.661 109.805 C 218.153 109.313,218.757 109.248,220.871 109.461 C 223.044 109.679,223.582 109.615,224.123 109.074 C 224.661 108.535,225.191 108.470,227.241 108.690 C 228.830 108.860,229.798 108.812,229.957 108.554 C 230.240 108.096,232.828 108.013,236.609 108.342 C 238.752 108.528,239.298 108.458,239.670 107.948 C 240.077 107.391,240.201 107.387,240.883 107.907 C 241.539 108.407,241.565 108.538,241.070 108.869 C 240.570 109.203,240.577 109.254,241.121 109.259 C 241.682 109.264,242.373 110.507,242.250 111.291 C 242.224 111.460,242.469 111.865,242.795 112.191 C 243.224 112.620,243.276 112.919,242.983 113.272 C 242.686 113.630,242.746 113.824,243.205 114.000 C 243.596 114.150,243.759 114.516,243.639 114.975 C 243.524 115.415,243.676 115.798,244.018 115.929 C 244.404 116.077,244.515 116.444,244.360 117.060 C 244.201 117.695,244.317 118.043,244.742 118.206 C 245.176 118.373,245.284 118.716,245.114 119.392 C 244.965 119.986,245.038 120.344,245.307 120.344 C 245.594 120.344,245.655 120.794,245.488 121.681 C 245.287 122.754,245.358 123.018,245.845 123.018 C 246.332 123.018,246.403 123.282,246.205 124.342 C 246.024 125.303,246.125 125.835,246.569 126.280 C 247.028 126.738,247.120 127.282,246.936 128.433 C 246.778 129.422,246.846 130.069,247.126 130.242 C 247.613 130.543,247.661 131.506,247.326 134.249 C 247.143 135.737,247.223 136.191,247.713 136.465 C 248.579 136.950,248.617 142.798,247.755 143.128 C 247.100 143.380,246.928 146.884,247.552 147.270 C 247.971 147.529,247.649 149.708,247.085 150.426 C 246.881 150.686,246.827 151.505,246.966 152.245 C 247.157 153.260,247.077 153.646,246.644 153.812 C 246.228 153.972,246.134 154.355,246.303 155.202 C 246.474 156.058,246.362 156.499,245.882 156.850 C 245.516 157.117,245.390 157.430,245.596 157.557 C 246.043 157.834,245.712 159.312,245.202 159.312 C 245.002 159.312,244.943 159.643,245.072 160.046 C 245.202 160.456,245.074 160.995,244.783 161.268 C 244.496 161.536,244.329 162.108,244.411 162.539 C 244.557 163.300,244.427 163.320,240.090 163.194 C 237.033 163.106,235.532 163.202,235.349 163.499 C 234.960 164.128,209.969 164.573,209.588 163.957 C 209.013 163.026,205.158 163.517,205.158 164.521 C 205.158 164.958,205.844 165.043,208.691 164.958 C 211.359 164.878,212.202 164.969,212.130 165.330 C 212.007 165.942,214.935 165.986,215.311 165.377 C 215.653 164.824,219.686 165.207,220.071 165.829 C 220.268 166.149,221.225 166.199,223.415 166.005 C 226.584 165.725,228.267 165.960,227.855 166.627 C 227.698 166.880,228.993 166.918,231.670 166.738 C 235.277 166.497,235.721 166.535,235.721 167.092 C 235.721 167.804,238.548 168.016,238.968 167.335 C 239.387 166.657,242.980 167.024,242.980 167.744 C 242.980 167.921,243.367 168.471,243.840 168.969 C 245.248 170.450,246.235 172.004,246.115 172.552 C 246.053 172.835,246.278 173.066,246.615 173.066 C 246.967 173.066,247.116 173.246,246.965 173.491 C 246.821 173.724,246.917 174.048,247.179 174.210 C 247.754 174.565,247.776 177.508,247.209 178.191 C 246.988 178.458,246.912 178.781,247.040 178.909 C 247.511 179.380,243.597 182.425,242.996 182.054 C 242.777 181.919,242.598 182.010,242.598 182.257 C 242.598 182.518,242.278 182.622,241.834 182.506 C 241.317 182.371,241.070 182.495,241.070 182.888 C 241.070 183.290,240.797 183.418,240.190 183.302 C 239.706 183.209,239.084 183.376,238.807 183.672 C 238.531 183.968,237.958 184.120,237.536 184.009 C 236.431 183.721,235.331 184.851,236.227 185.353 C 236.679 185.606,236.802 185.993,236.637 186.649 C 236.508 187.163,236.565 187.584,236.764 187.584 C 237.331 187.584,237.985 189.330,237.752 190.219 C 237.631 190.681,237.723 191.022,237.969 191.022 C 238.203 191.022,238.395 191.452,238.395 191.977 C 238.395 192.502,238.567 192.932,238.777 192.932 C 238.988 192.932,239.160 193.620,239.160 194.460 C 239.160 195.301,238.984 195.989,238.770 195.989 C 238.556 195.989,238.478 196.377,238.598 196.852 C 238.733 197.393,238.558 198.007,238.127 198.496 C 237.749 198.926,237.252 199.612,237.021 200.021 C 236.790 200.430,236.221 200.957,235.757 201.192 C 235.028 201.562,235.000 201.654,235.548 201.864 C 235.897 201.998,236.089 202.350,235.976 202.646 C 235.862 202.942,236.030 203.284,236.349 203.406 C 236.774 203.570,236.861 203.934,236.676 204.775 C 236.518 205.497,236.577 205.922,236.837 205.922 C 237.357 205.922,237.382 207.705,236.866 208.024 C 236.655 208.154,236.576 208.637,236.690 209.097 C 236.854 209.757,236.331 210.494,234.208 212.597 C 232.729 214.062,231.519 215.481,231.519 215.749 C 231.519 216.017,231.218 216.239,230.850 216.243 C 230.319 216.247,230.290 216.317,230.711 216.584 C 231.300 216.957,231.010 218.911,230.365 218.911 C 229.742 218.911,229.945 220.340,230.604 220.593 C 231.041 220.761,231.149 221.103,230.979 221.780 C 230.829 222.376,230.902 222.732,231.174 222.732 C 231.431 222.732,231.533 223.121,231.425 223.687 C 231.310 224.287,231.417 224.642,231.712 224.642 C 232.044 224.642,232.169 225.430,232.137 227.316 C 232.105 229.198,231.948 229.990,231.607 229.990 C 231.288 229.990,231.200 230.300,231.349 230.895 C 231.608 231.925,230.145 233.811,229.087 233.811 C 228.705 233.811,228.462 234.126,228.462 234.620 C 228.462 235.240,228.285 235.382,227.698 235.228 C 227.192 235.096,226.934 235.217,226.934 235.585 C 226.934 236.038,226.514 236.094,224.662 235.884 C 222.876 235.682,222.264 235.752,221.803 236.213 C 221.213 236.803,219.675 236.691,219.675 236.059 C 219.675 235.417,213.568 235.661,212.900 236.329 C 212.490 236.739,211.927 236.865,211.177 236.715 C 210.434 236.566,209.865 236.690,209.469 237.086 C 209.048 237.506,208.755 237.561,208.468 237.274 C 207.892 236.698,207.450 236.770,207.450 237.440 C 207.450 237.755,207.192 238.013,206.877 238.013 C 206.562 238.013,206.304 237.831,206.304 237.609 C 206.304 237.386,206.129 237.312,205.915 237.444 C 205.702 237.576,205.626 237.844,205.747 238.040 C 205.983 238.422,204.041 239.317,203.706 238.981 C 203.596 238.872,203.313 239.168,203.077 239.639 C 202.841 240.111,202.294 240.497,201.863 240.497 C 200.836 240.497,199.757 241.408,199.871 242.179 C 199.981 242.929,198.778 245.272,198.283 245.272 C 198.085 245.272,198.031 245.555,198.164 245.901 C 198.297 246.249,198.164 246.717,197.865 246.951 C 197.089 247.559,197.087 256.356,197.863 256.963 C 198.169 257.202,198.310 257.726,198.191 258.180 C 198.060 258.684,198.194 259.057,198.557 259.197 C 199.020 259.374,199.039 259.527,198.659 259.985 C 198.279 260.443,198.292 260.554,198.725 260.554 C 199.381 260.554,200.709 262.699,200.382 263.229 C 200.252 263.439,200.407 263.610,200.727 263.610 C 201.081 263.610,201.468 264.206,201.719 265.138 C 202.007 266.206,202.339 266.667,202.821 266.667 C 203.643 266.667,204.776 267.822,204.776 268.662 C 204.776 269.247,205.788 269.918,206.444 269.769 C 207.128 269.613,208.596 270.918,208.596 271.683 C 208.596 272.260,208.766 272.414,209.215 272.241 C 209.829 272.006,213.178 273.832,213.180 274.403 C 213.180 274.561,213.438 274.690,213.754 274.690 C 214.069 274.690,214.327 274.856,214.327 275.060 C 214.327 275.263,214.585 275.331,214.900 275.210 C 215.260 275.072,215.473 275.214,215.473 275.592 C 215.473 275.970,215.686 276.112,216.046 275.974 C 216.406 275.836,216.619 275.978,216.619 276.356 C 216.619 276.731,216.832 276.876,217.186 276.740 C 217.755 276.522,221.201 278.450,221.203 278.988 C 221.203 279.145,221.452 279.274,221.757 279.274 C 222.435 279.274,224.410 281.045,223.989 281.276 C 223.823 281.367,223.917 281.383,224.198 281.312 C 224.937 281.125,226.230 282.810,225.658 283.214 C 225.412 283.387,225.618 283.412,226.120 283.271 C 226.784 283.082,226.979 283.151,226.853 283.529 C 226.759 283.812,227.039 284.231,227.476 284.460 C 227.914 284.689,228.219 285.104,228.156 285.383 C 228.092 285.662,228.178 285.992,228.347 286.116 C 228.997 286.595,230.431 289.650,230.240 290.148 C 230.129 290.436,230.251 290.754,230.511 290.853 C 231.183 291.111,231.940 293.722,231.434 294.035 C 231.193 294.184,231.292 294.421,231.684 294.641 C 232.153 294.903,232.265 295.293,232.095 296.068 C 231.926 296.839,232.027 297.197,232.463 297.364 C 232.882 297.525,232.995 297.876,232.834 298.517 C 232.707 299.024,232.789 299.554,233.016 299.694 C 233.536 300.016,233.564 303.725,233.047 303.725 C 232.837 303.725,232.665 303.994,232.665 304.324 C 232.665 305.100,234.179 304.671,234.862 303.700 C 235.125 303.327,235.856 302.908,236.486 302.770 C 237.116 302.631,237.633 302.317,237.634 302.071 C 237.638 301.365,335.333 203.629,336.034 203.629 C 336.452 203.629,336.584 203.426,336.429 203.020 C 336.278 202.627,336.671 201.935,337.534 201.072 C 338.270 200.335,338.873 199.492,338.873 199.198 C 338.873 198.904,339.141 198.663,339.469 198.663 C 339.796 198.663,339.967 198.506,339.849 198.315 C 339.614 197.934,341.440 194.036,342.038 193.643 C 342.242 193.509,342.290 193.207,342.145 192.972 C 342.000 192.737,342.149 192.442,342.476 192.316 C 342.803 192.191,342.976 191.934,342.860 191.746 C 342.743 191.558,342.783 191.189,342.947 190.926 C 343.111 190.664,343.283 190.194,343.330 189.883 C 343.377 189.571,343.572 189.265,343.763 189.201 C 343.954 189.137,344.030 188.663,343.931 188.148 C 343.813 187.527,343.954 187.133,344.353 186.981 C 344.796 186.811,344.892 186.444,344.719 185.581 C 344.563 184.799,344.663 184.274,345.022 183.992 C 345.802 183.381,345.807 170.395,345.027 169.784 C 344.654 169.492,344.571 168.964,344.750 168.014 C 344.948 166.955,344.867 166.607,344.378 166.420 C 343.979 166.267,343.825 165.905,343.951 165.421 C 344.061 165.003,343.979 164.556,343.770 164.427 C 343.562 164.298,343.473 163.879,343.573 163.496 C 343.678 163.096,343.511 162.707,343.181 162.580 C 342.828 162.444,342.683 162.066,342.805 161.600 C 342.915 161.182,342.848 160.840,342.658 160.840 C 342.467 160.840,342.311 160.583,342.311 160.267 C 342.311 159.952,342.154 159.694,341.961 159.694 C 341.768 159.694,341.304 158.878,340.930 157.880 C 340.556 156.882,340.155 155.979,340.039 155.874 C 339.923 155.769,339.515 155.120,339.132 154.431 C 338.749 153.743,338.019 152.729,337.508 152.179 C 336.998 151.628,336.581 151.018,336.581 150.824 C 336.581 150.283,236.387 50.048,235.847 50.048 C 235.587 50.048,234.965 49.639,234.464 49.138 C 233.964 48.638,233.183 48.111,232.728 47.967 C 232.273 47.822,231.901 47.544,231.901 47.348 C 231.901 47.152,231.643 46.991,231.328 46.991 C 231.012 46.991,230.755 46.739,230.755 46.430 C 230.755 46.089,230.531 45.955,230.181 46.089 C 229.866 46.210,229.608 46.111,229.608 45.869 C 229.608 45.628,229.394 45.456,229.131 45.488 C 228.171 45.605,226.934 44.976,226.928 44.368 C 226.924 43.899,226.845 43.866,226.611 44.235 C 226.287 44.745,225.024 44.483,225.024 43.906 C 225.024 43.725,224.783 43.669,224.489 43.782 C 224.196 43.895,223.842 43.804,223.703 43.579 C 223.564 43.355,223.026 43.171,222.506 43.171 C 221.987 43.171,221.461 42.909,221.338 42.588 C 221.166 42.140,220.993 42.106,220.588 42.442 C 220.186 42.776,219.838 42.733,219.118 42.261 C 218.599 41.921,217.953 41.672,217.683 41.707 C 217.413 41.742,216.547 41.839,215.759 41.921 M196.598 49.135 C 196.436 49.558,196.027 49.702,195.296 49.595 C 194.011 49.406,194.822 48.724,186.770 56.767 C 179.019 64.509,179.281 64.216,178.962 65.488 C 178.825 66.031,178.566 66.476,178.385 66.476 C 178.204 66.476,178.147 66.711,178.257 66.999 C 178.368 67.288,178.178 67.803,177.836 68.146 C 177.261 68.721,177.261 68.815,177.836 69.390 C 178.178 69.733,178.377 70.225,178.278 70.484 C 178.076 71.009,194.425 87.488,195.148 87.488 C 195.400 87.488,195.606 87.633,195.606 87.811 C 195.606 87.989,196.380 88.118,197.326 88.098 C 198.271 88.078,199.045 87.946,199.045 87.805 C 199.045 87.664,199.575 87.432,200.222 87.290 C 201.739 86.957,216.405 72.430,216.079 71.583 C 215.963 71.280,216.097 70.943,216.377 70.836 C 216.919 70.628,217.058 66.864,216.523 66.860 C 216.366 66.859,216.237 66.724,216.237 66.561 C 216.237 65.899,199.424 49.481,198.866 49.598 C 198.543 49.666,198.175 49.452,198.048 49.121 C 197.748 48.340,196.900 48.348,196.598 49.135 M155.492 68.475 C 155.492 68.681,155.234 68.751,154.919 68.630 C 154.604 68.509,154.346 68.546,154.346 68.713 C 154.346 68.880,150.654 72.786,146.141 77.393 C 141.629 82.000,137.933 86.057,137.927 86.410 C 137.922 86.763,137.660 87.309,137.345 87.625 C 136.671 88.298,136.594 89.016,137.195 89.016 C 137.456 89.016,137.527 89.383,137.379 89.971 C 137.204 90.670,137.292 90.926,137.708 90.926 C 138.041 90.926,138.190 91.150,138.069 91.467 C 137.892 91.928,139.316 93.516,142.966 96.925 C 143.236 97.178,143.664 97.608,143.917 97.880 C 144.169 98.153,144.599 98.583,144.872 98.836 C 145.145 99.088,145.578 99.518,145.835 99.791 C 146.092 100.063,146.521 100.509,146.790 100.780 C 152.758 106.818,153.774 107.737,154.491 107.739 C 154.936 107.740,155.797 108.000,156.403 108.316 C 157.232 108.748,157.634 108.784,158.025 108.459 C 158.310 108.222,158.889 108.118,159.310 108.229 C 159.732 108.339,160.076 108.304,160.076 108.151 C 160.076 107.675,176.287 91.302,176.755 91.305 C 177.009 91.307,177.112 90.984,176.997 90.544 C 176.885 90.117,176.985 89.780,177.224 89.780 C 177.858 89.780,177.740 87.141,177.077 86.478 C 176.762 86.163,176.504 85.561,176.504 85.141 C 176.504 84.721,176.289 84.137,176.027 83.845 C 175.197 82.920,174.646 82.345,174.135 81.871 C 173.862 81.619,173.432 81.189,173.180 80.916 C 172.927 80.643,172.497 80.214,172.225 79.961 C 171.952 79.708,171.525 79.279,171.276 79.006 C 171.028 78.733,169.566 77.265,168.029 75.743 C 166.492 74.222,165.027 72.760,164.775 72.496 C 164.522 72.232,164.092 71.809,163.820 71.556 C 163.547 71.303,163.117 70.874,162.865 70.601 C 162.612 70.328,162.157 69.900,161.853 69.649 C 161.549 69.398,161.210 68.968,161.100 68.694 C 160.941 68.301,160.810 68.316,160.480 68.768 C 160.108 69.277,160.010 69.277,159.592 68.768 C 159.062 68.123,155.492 67.868,155.492 68.475 M96.657 114.146 C 96.657 114.888,87.262 124.538,86.164 124.924 C 85.518 125.150,84.990 129.132,85.607 129.131 C 86.090 129.131,97.222 140.680,97.113 141.069 C 97.034 141.351,97.157 141.364,97.495 141.108 C 98.239 140.545,100.196 140.520,100.544 141.068 C 100.772 141.428,100.849 141.403,100.854 140.969 C 100.861 140.278,111.169 129.895,111.848 129.895 C 112.108 129.895,112.344 129.594,112.372 129.226 C 112.535 127.109,112.470 126.231,112.130 125.950 C 111.883 125.746,111.917 125.566,112.228 125.440 C 112.815 125.202,101.872 114.231,101.047 114.231 C 100.734 114.231,100.478 114.071,100.478 113.876 C 100.478 113.657,100.005 113.656,99.251 113.872 C 98.470 114.096,97.888 114.087,97.647 113.845 C 97.069 113.268,96.657 113.393,96.657 114.146 M136.622 130.879 C 136.462 131.296,136.011 131.443,135.150 131.356 C 134.358 131.277,133.907 131.401,133.907 131.699 C 133.906 132.206,115.036 151.289,114.535 151.289 C 114.368 151.289,114.231 151.547,114.231 151.862 C 114.231 152.178,114.102 152.436,113.945 152.436 C 113.787 152.436,113.658 153.639,113.658 155.110 C 113.658 156.581,113.787 157.784,113.945 157.784 C 114.102 157.784,114.231 158.042,114.231 158.357 C 114.231 158.672,114.411 158.930,114.631 158.930 C 115.337 158.930,133.333 177.101,133.333 177.814 C 133.333 178.287,133.524 178.423,133.955 178.258 C 134.297 178.127,134.769 178.178,135.005 178.372 C 135.738 178.973,140.212 179.069,140.211 178.484 C 140.210 178.162,140.474 178.065,140.943 178.214 C 141.449 178.374,141.745 178.231,141.897 177.753 C 142.018 177.372,146.329 172.860,151.479 167.727 C 156.628 162.594,160.840 158.256,160.840 158.089 C 160.840 157.921,160.980 157.784,161.150 157.784 C 161.616 157.784,161.532 152.670,161.060 152.340 C 160.784 152.147,160.837 151.931,161.223 151.677 C 161.720 151.351,161.712 151.300,161.163 151.295 C 160.576 151.290,141.561 132.505,141.205 131.580 C 141.116 131.348,140.522 131.240,139.868 131.336 C 139.025 131.459,138.624 131.334,138.454 130.893 C 138.151 130.103,136.924 130.094,136.622 130.879 M53.577 169.411 C 53.337 169.635,52.918 170.025,52.645 170.278 C 52.372 170.530,51.936 170.960,51.675 171.233 C 51.415 171.506,50.770 172.155,50.243 172.676 C 49.715 173.197,49.284 173.927,49.284 174.300 C 49.284 174.672,49.112 174.976,48.902 174.976 C 48.691 174.976,48.520 175.148,48.520 175.358 C 48.520 175.568,48.757 175.740,49.046 175.740 C 49.336 175.740,49.803 176.299,50.084 176.982 C 50.612 178.264,54.250 182.200,54.250 181.489 C 54.250 180.957,55.513 180.976,56.054 181.517 C 56.370 181.833,56.915 181.485,58.136 180.190 C 59.046 179.224,59.997 178.215,60.249 177.947 C 60.502 177.679,60.975 177.238,61.300 176.967 C 62.390 176.058,61.918 175.026,59.217 172.412 C 57.746 170.989,56.542 169.652,56.541 169.440 C 56.540 168.921,54.127 168.898,53.577 169.411 M92.136 173.240 C 91.879 173.460,91.459 173.861,91.202 174.133 C 88.961 176.502,86.949 178.415,86.698 178.415 C 86.530 178.415,86.287 178.750,86.157 179.159 C 86.027 179.569,85.579 180.012,85.160 180.145 C 84.620 180.316,84.467 180.599,84.633 181.120 C 84.761 181.523,84.718 181.853,84.539 181.853 C 84.359 181.853,84.185 182.541,84.151 183.381 C 84.108 184.464,84.246 184.909,84.624 184.909 C 85.228 184.909,92.837 192.342,92.837 192.932 C 92.837 193.142,93.052 193.271,93.314 193.219 C 93.577 193.166,93.749 193.338,93.696 193.601 C 93.644 193.863,93.945 194.078,94.365 194.078 C 94.812 194.078,95.129 193.824,95.129 193.464 C 95.129 193.066,95.338 192.930,95.723 193.078 C 96.289 193.295,96.907 192.953,97.917 191.864 C 100.518 189.059,104.031 185.673,104.342 185.673 C 104.558 185.673,104.623 185.332,104.489 184.909 C 104.350 184.471,104.420 184.145,104.654 184.145 C 105.318 184.145,105.118 182.338,104.425 182.072 C 103.940 181.886,103.894 181.722,104.234 181.382 C 104.479 181.137,104.680 180.770,104.680 180.567 C 104.680 180.364,104.578 180.299,104.454 180.424 C 104.204 180.673,98.185 174.720,98.185 174.223 C 98.185 173.428,92.918 172.572,92.136 173.240 M119.198 204.247 C 119.198 204.694,118.967 204.804,118.363 204.646 C 117.776 204.493,117.213 204.735,116.470 205.461 C 115.887 206.030,115.229 206.667,115.005 206.877 C 114.782 207.087,113.056 208.806,111.169 210.697 C 109.282 212.588,107.472 214.364,107.148 214.643 C 106.796 214.946,106.652 215.448,106.791 215.887 C 106.943 216.364,106.814 216.704,106.426 216.853 C 105.659 217.147,105.634 219.138,106.393 219.429 C 106.704 219.548,106.864 219.896,106.746 220.202 C 106.530 220.765,115.096 229.608,115.858 229.608 C 116.385 229.608,119.027 231.988,118.911 232.358 C 118.859 232.527,119.417 232.665,120.153 232.665 C 121.114 232.665,121.490 232.496,121.490 232.064 C 121.490 231.692,121.745 231.516,122.159 231.603 C 122.962 231.773,128.749 226.168,128.749 225.221 C 128.749 224.878,128.921 224.703,129.131 224.833 C 129.341 224.963,129.513 224.887,129.513 224.664 C 129.513 224.442,129.857 224.260,130.277 224.260 C 130.697 224.260,131.041 224.078,131.041 223.855 C 131.041 223.633,130.869 223.557,130.659 223.687 C 129.955 224.122,130.267 223.540,131.284 222.524 C 132.085 221.723,132.366 221.622,132.657 222.029 C 132.932 222.413,132.970 222.375,132.808 221.872 C 132.534 221.021,132.897 220.057,133.491 220.057 C 135.233 220.057,133.357 215.327,130.690 212.993 C 129.968 212.361,127.686 210.167,125.619 208.118 C 123.552 206.070,121.692 204.394,121.485 204.394 C 121.277 204.394,121.108 204.222,121.108 204.011 C 121.108 203.801,120.678 203.629,120.153 203.629 C 119.528 203.629,119.198 203.843,119.198 204.247 M175.524 216.197 C 175.802 216.645,174.753 217.038,174.024 216.758 C 173.679 216.626,173.358 216.818,173.210 217.248 C 172.828 218.352,158.062 233.047,157.334 233.047 C 156.807 233.047,156.726 233.296,156.903 234.384 C 157.077 235.454,156.996 235.721,156.497 235.721 C 156.129 235.721,155.874 236.033,155.874 236.485 C 155.874 236.934,156.129 237.249,156.492 237.249 C 156.944 237.249,157.060 237.504,156.927 238.204 C 156.826 238.730,156.854 239.160,156.987 239.160 C 157.580 239.160,173.830 255.829,173.830 256.437 C 173.830 257.217,174.981 257.344,176.188 256.698 C 176.752 256.396,177.084 256.396,177.386 256.698 C 178.003 257.315,178.797 257.205,178.797 256.502 C 178.797 256.113,179.007 255.968,179.370 256.108 C 179.685 256.229,179.943 256.155,179.943 255.943 C 179.943 255.732,183.674 251.826,188.236 247.264 C 192.797 242.701,196.515 238.883,196.498 238.777 C 196.481 238.672,196.522 238.415,196.588 238.204 C 196.973 236.976,196.898 234.184,196.475 234.021 C 196.214 233.922,196.093 233.600,196.206 233.307 C 196.428 232.729,192.409 228.349,192.017 228.741 C 191.890 228.868,191.786 228.782,191.786 228.550 C 191.786 227.731,180.741 217.012,180.136 217.244 C 179.820 217.365,179.561 217.274,179.561 217.042 C 179.561 216.809,179.217 216.619,178.797 216.619 C 178.376 216.619,178.032 216.447,178.032 216.237 C 178.032 216.027,177.421 215.855,176.673 215.855 C 175.925 215.855,175.408 216.009,175.524 216.197 M91.428 220.881 C 87.656 224.621,86.170 226.934,87.541 226.934 C 87.692 226.934,88.817 227.989,90.040 229.279 C 96.709 236.311,96.244 236.244,101.242 230.905 C 103.238 228.773,105.043 227.007,105.253 226.981 C 105.640 226.933,105.810 224.642,105.427 224.642 C 105.312 224.642,103.431 222.891,101.246 220.752 C 96.191 215.802,96.557 215.797,91.428 220.881 M138.940 275.990 C 138.781 276.404,138.446 276.591,138.100 276.458 C 137.597 276.265,136.179 277.523,132.683 281.266 C 132.430 281.536,132.001 281.964,131.728 282.217 C 131.455 282.469,131.025 282.899,130.773 283.172 C 130.520 283.444,130.090 283.874,129.818 284.127 C 128.882 284.994,128.367 285.737,128.361 286.230 C 128.356 286.611,128.279 286.604,128.023 286.200 C 127.815 285.872,127.710 286.479,127.742 287.823 C 127.771 289.004,127.925 289.970,128.086 289.971 C 128.509 289.972,138.300 299.705,138.300 300.125 C 138.300 300.319,139.160 300.478,140.210 300.478 C 141.261 300.478,142.120 300.345,142.120 300.184 C 142.120 299.810,151.972 289.972,152.347 289.971 C 153.037 289.969,152.733 285.794,152.027 285.569 C 151.643 285.447,151.225 285.021,151.098 284.623 C 150.972 284.224,150.542 283.794,150.143 283.668 C 149.745 283.541,149.315 283.111,149.188 282.713 C 149.062 282.314,148.623 281.881,148.214 281.751 C 147.804 281.621,147.469 281.365,147.469 281.182 C 147.469 280.521,142.781 276.207,142.171 276.307 C 141.828 276.363,141.590 276.194,141.643 275.931 C 141.695 275.669,141.566 275.454,141.356 275.454 C 141.146 275.454,140.974 275.626,140.974 275.836 C 140.974 276.379,139.541 276.311,139.357 275.760 C 139.265 275.483,139.100 275.574,138.940 275.990 M198.890 282.565 C 198.730 282.982,198.346 283.123,197.703 283.000 C 197.180 282.900,196.753 282.967,196.753 283.148 C 196.753 283.329,196.495 283.477,196.180 283.477 C 195.864 283.477,195.606 283.617,195.606 283.788 C 195.606 284.243,183.038 296.848,182.585 296.848 C 181.477 296.848,175.285 303.275,175.560 304.141 C 175.712 304.621,175.610 304.871,175.259 304.871 C 174.885 304.871,174.776 305.211,174.894 306.013 C 175.012 306.820,174.881 307.224,174.446 307.391 C 173.649 307.697,173.650 308.309,174.446 308.309 C 174.914 308.309,175.022 308.586,174.895 309.456 C 174.776 310.261,174.885 310.602,175.259 310.602 C 175.611 310.602,175.712 310.851,175.558 311.337 C 175.379 311.901,176.018 312.745,178.302 314.961 C 179.940 316.549,181.452 318.030,181.662 318.250 C 185.098 321.859,193.472 330.086,193.710 330.086 C 193.884 330.086,194.136 330.430,194.269 330.850 C 194.438 331.381,194.847 331.614,195.610 331.614 C 196.214 331.614,196.814 331.786,196.944 331.996 C 197.074 332.206,197.519 332.378,197.933 332.378 C 198.348 332.378,198.786 332.636,198.907 332.951 C 199.197 333.706,200.429 333.687,200.722 332.923 C 200.849 332.592,201.254 332.384,201.623 332.459 C 201.991 332.535,202.504 332.333,202.763 332.010 C 203.170 331.501,203.281 331.497,203.596 331.976 C 203.885 332.416,204.010 332.326,204.209 331.535 C 204.346 330.988,204.787 330.454,205.188 330.349 C 205.589 330.244,206.032 329.841,206.172 329.454 C 206.565 328.363,222.418 312.578,223.357 312.342 C 223.965 312.189,224.135 311.927,223.989 311.367 C 223.879 310.946,223.965 310.602,224.179 310.602 C 224.394 310.602,224.487 310.284,224.385 309.895 C 224.284 309.506,224.472 308.916,224.803 308.585 C 225.135 308.253,225.406 307.871,225.406 307.736 C 225.406 307.601,225.135 307.220,224.803 306.888 C 224.472 306.557,224.284 305.967,224.385 305.578 C 224.487 305.189,224.403 304.871,224.198 304.871 C 223.994 304.871,223.934 304.533,224.065 304.120 C 224.248 303.543,224.087 303.314,223.374 303.135 C 222.853 303.004,218.224 298.648,212.807 293.189 C 207.505 287.847,203.014 283.477,202.825 283.477 C 202.637 283.477,202.483 283.329,202.483 283.148 C 202.483 282.967,202.053 282.901,201.528 283.001 C 200.828 283.135,200.573 283.019,200.573 282.566 C 200.573 281.759,199.199 281.759,198.890 282.565 " stroke="none" fill="#0c0454" fill-rule="evenodd"></path><path id="path1" d="M212.034 41.452 C 212.034 41.767,212.206 42.025,212.416 42.025 C 212.627 42.025,212.798 41.767,212.798 41.452 C 212.798 41.137,212.627 40.879,212.416 40.879 C 212.206 40.879,212.034 41.137,212.034 41.452 M215.091 41.261 C 215.091 41.471,215.521 41.643,216.046 41.643 C 216.571 41.643,217.001 41.471,217.001 41.261 C 217.001 41.051,216.571 40.879,216.046 40.879 C 215.521 40.879,215.091 41.051,215.091 41.261 M222.350 42.407 C 222.350 42.617,222.607 42.789,222.923 42.789 C 223.238 42.789,223.496 42.617,223.496 42.407 C 223.496 42.197,223.238 42.025,222.923 42.025 C 222.607 42.025,222.350 42.197,222.350 42.407 M216.005 44.539 C 216.133 44.872,216.237 45.216,216.237 45.303 C 216.237 45.391,216.495 45.463,216.810 45.463 C 217.501 45.463,217.549 45.017,216.925 44.394 C 216.272 43.741,215.731 43.826,216.005 44.539 M217.765 46.181 C 217.765 46.365,218.023 46.730,218.338 46.991 C 218.960 47.508,219.038 47.384,218.679 46.450 C 218.434 45.810,217.765 45.613,217.765 46.181 M234.193 48.329 C 234.193 48.644,234.265 48.902,234.353 48.902 C 234.441 48.902,234.801 49.013,235.155 49.148 C 235.723 49.366,235.738 49.301,235.285 48.575 C 234.689 47.621,234.193 47.509,234.193 48.329 M194.460 48.902 C 194.460 49.112,194.718 49.284,195.033 49.284 C 195.349 49.284,195.606 49.112,195.606 48.902 C 195.606 48.691,195.349 48.520,195.033 48.520 C 194.718 48.520,194.460 48.691,194.460 48.902 M236.867 50.131 C 236.867 50.387,237.324 50.989,237.882 51.468 C 238.976 52.409,239.921 52.679,239.091 51.814 C 238.814 51.524,238.334 50.923,238.025 50.477 C 237.401 49.577,236.867 49.417,236.867 50.131 M220.821 50.621 C 220.821 50.936,220.993 51.194,221.203 51.194 C 221.414 51.194,221.585 50.936,221.585 50.621 C 221.585 50.306,221.414 50.048,221.203 50.048 C 220.993 50.048,220.821 50.306,220.821 50.621 M224.260 58.262 C 224.260 58.577,224.432 58.835,224.642 58.835 C 224.852 58.835,225.024 58.577,225.024 58.262 C 225.024 57.947,224.852 57.689,224.642 57.689 C 224.432 57.689,224.260 57.947,224.260 58.262 M156.638 67.622 C 156.638 67.832,157.068 68.004,157.593 68.004 C 158.118 68.004,158.548 67.832,158.548 67.622 C 158.548 67.412,158.118 67.240,157.593 67.240 C 157.068 67.240,156.638 67.412,156.638 67.622 M217.001 68.577 C 217.001 69.312,217.173 69.914,217.383 69.914 C 217.593 69.914,217.765 69.312,217.765 68.577 C 217.765 67.841,217.593 67.240,217.383 67.240 C 217.173 67.240,217.001 67.841,217.001 68.577 M226.552 68.386 C 226.552 69.131,226.957 69.381,227.417 68.922 C 227.723 68.616,227.323 67.622,226.893 67.622 C 226.706 67.622,226.552 67.966,226.552 68.386 M226.170 81.948 C 226.170 82.264,226.342 82.521,226.552 82.521 C 226.762 82.521,226.934 82.264,226.934 81.948 C 226.934 81.633,226.762 81.375,226.552 81.375 C 226.342 81.375,226.170 81.633,226.170 81.948 M224.642 86.533 C 224.642 86.883,224.827 87.108,225.053 87.033 C 225.278 86.957,225.463 86.733,225.463 86.533 C 225.463 86.333,225.278 86.108,225.053 86.033 C 224.827 85.958,224.642 86.183,224.642 86.533 M224.260 88.443 C 224.260 88.758,224.432 89.016,224.642 89.016 C 224.852 89.016,225.024 88.758,225.024 88.443 C 225.024 88.128,224.852 87.870,224.642 87.870 C 224.432 87.870,224.260 88.128,224.260 88.443 M196.371 88.634 C 196.371 88.844,196.800 89.016,197.326 89.016 C 197.851 89.016,198.281 88.844,198.281 88.634 C 198.281 88.424,197.851 88.252,197.326 88.252 C 196.800 88.252,196.371 88.424,196.371 88.634 M176.135 92.351 C 175.634 92.915,175.648 92.954,176.262 92.718 C 176.640 92.573,177.021 92.455,177.109 92.455 C 177.196 92.455,177.268 92.283,177.268 92.073 C 177.268 91.511,176.773 91.632,176.135 92.351 M224.642 97.612 C 224.642 97.927,224.814 98.185,225.024 98.185 C 225.234 98.185,225.406 97.927,225.406 97.612 C 225.406 97.297,225.234 97.039,225.024 97.039 C 224.814 97.039,224.642 97.297,224.642 97.612 M220.821 102.388 C 220.821 102.598,221.079 102.770,221.394 102.770 C 221.710 102.770,221.968 102.598,221.968 102.388 C 221.968 102.178,221.710 102.006,221.394 102.006 C 221.079 102.006,220.821 102.178,220.821 102.388 M212.416 105.444 C 212.416 105.654,212.674 105.826,212.989 105.826 C 213.305 105.826,213.563 105.654,213.563 105.444 C 213.563 105.234,213.305 105.062,212.989 105.062 C 212.674 105.062,212.416 105.234,212.416 105.444 M232.092 108.500 C 231.951 108.728,232.414 108.883,233.238 108.883 C 234.062 108.883,234.525 108.728,234.384 108.500 C 234.254 108.290,233.738 108.118,233.238 108.118 C 232.737 108.118,232.222 108.290,232.092 108.500 M225.788 109.265 C 225.788 109.475,226.132 109.647,226.552 109.647 C 226.972 109.647,227.316 109.475,227.316 109.265 C 227.316 109.054,226.972 108.883,226.552 108.883 C 226.132 108.883,225.788 109.054,225.788 109.265 M219.293 110.029 C 219.293 110.239,219.637 110.411,220.057 110.411 C 220.478 110.411,220.821 110.239,220.821 110.029 C 220.821 109.819,220.478 109.647,220.057 109.647 C 219.637 109.647,219.293 109.819,219.293 110.029 M213.563 110.411 C 213.118 110.698,213.229 110.782,214.063 110.787 C 214.682 110.790,215.036 110.631,214.900 110.411 C 214.607 109.936,214.297 109.936,213.563 110.411 M197.899 111.557 C 197.899 111.977,198.071 112.321,198.281 112.321 C 198.491 112.321,198.663 111.977,198.663 111.557 C 198.663 111.137,198.491 110.793,198.281 110.793 C 198.071 110.793,197.899 111.137,197.899 111.557 M207.450 111.175 C 207.450 111.385,207.880 111.557,208.405 111.557 C 208.930 111.557,209.360 111.385,209.360 111.175 C 209.360 110.965,208.930 110.793,208.405 110.793 C 207.880 110.793,207.450 110.965,207.450 111.175 M201.337 111.939 C 201.337 112.149,201.853 112.321,202.483 112.321 C 203.114 112.321,203.629 112.149,203.629 111.939 C 203.629 111.729,203.114 111.557,202.483 111.557 C 201.853 111.557,201.337 111.729,201.337 111.939 M97.517 113.181 C 97.604 113.443,97.876 113.641,98.122 113.620 C 98.367 113.599,98.911 113.556,99.331 113.524 C 100.678 113.423,100.147 112.703,98.727 112.703 C 97.801 112.703,97.409 112.858,97.517 113.181 M91.364 118.651 C 88.978 121.053,86.890 123.018,86.725 123.018 C 86.353 123.018,85.870 124.202,86.134 124.466 C 86.326 124.657,96.275 114.814,96.275 114.433 C 96.275 113.848,95.315 114.673,91.364 118.651 M244.126 119.389 C 244.126 119.704,244.298 119.962,244.508 119.962 C 244.718 119.962,244.890 119.704,244.890 119.389 C 244.890 119.074,244.718 118.816,244.508 118.816 C 244.298 118.816,244.126 119.074,244.126 119.389 M84.432 126.266 C 84.432 126.581,84.604 126.839,84.814 126.839 C 85.024 126.839,85.196 126.581,85.196 126.266 C 85.196 125.950,85.024 125.692,84.814 125.692 C 84.604 125.692,84.432 125.950,84.432 126.266 M112.703 127.412 C 112.703 127.937,112.875 128.367,113.085 128.367 C 113.295 128.367,113.467 127.937,113.467 127.412 C 113.467 126.886,113.295 126.457,113.085 126.457 C 112.875 126.457,112.703 126.886,112.703 127.412 M246.036 127.794 C 246.036 128.109,246.208 128.367,246.418 128.367 C 246.628 128.367,246.800 128.109,246.800 127.794 C 246.800 127.479,246.628 127.221,246.418 127.221 C 246.208 127.221,246.036 127.479,246.036 127.794 M110.695 131.282 C 109.964 132.138,108.996 133.120,106.552 135.481 C 106.309 135.716,105.401 136.616,104.535 137.481 C 103.669 138.346,102.574 139.439,102.101 139.910 C 101.181 140.828,101.006 141.356,101.624 141.356 C 101.834 141.356,102.006 141.189,102.006 140.985 C 102.006 140.540,109.603 132.951,110.048 132.951 C 110.219 132.951,110.466 132.616,110.596 132.207 C 110.725 131.797,111.167 131.356,111.576 131.226 C 111.986 131.096,112.321 130.829,112.321 130.633 C 112.321 129.968,111.555 130.273,110.695 131.282 M134.862 130.659 C 134.862 130.869,135.119 131.041,135.435 131.041 C 135.750 131.041,136.008 130.869,136.008 130.659 C 136.008 130.449,135.750 130.277,135.435 130.277 C 135.119 130.277,134.862 130.449,134.862 130.659 M139.446 130.659 C 139.446 130.869,139.704 131.041,140.019 131.041 C 140.334 131.041,140.592 130.869,140.592 130.659 C 140.592 130.449,140.334 130.277,140.019 130.277 C 139.704 130.277,139.446 130.449,139.446 130.659 M246.800 132.187 C 246.800 132.900,246.902 133.002,247.259 132.646 C 247.615 132.289,247.615 132.085,247.259 131.729 C 246.902 131.372,246.800 131.474,246.800 132.187 M331.242 144.222 C 331.545 144.642,332.225 145.443,332.754 146.001 C 333.283 146.559,334.231 147.626,334.862 148.371 C 335.492 149.116,336.137 149.734,336.294 149.744 C 336.894 149.780,336.540 148.994,335.530 148.046 C 334.952 147.503,333.627 146.249,332.586 145.258 C 331.545 144.268,330.940 143.801,331.242 144.222 M246.800 147.874 C 246.800 148.306,246.972 148.554,247.182 148.424 C 247.393 148.294,247.564 147.940,247.564 147.637 C 247.564 147.335,247.393 147.087,247.182 147.087 C 246.972 147.087,246.800 147.441,246.800 147.874 M246.036 152.627 C 246.036 152.942,246.208 153.200,246.418 153.200 C 246.628 153.200,246.800 152.942,246.800 152.627 C 246.800 152.311,246.628 152.053,246.418 152.053 C 246.208 152.053,246.036 152.311,246.036 152.627 M245.272 155.301 C 245.272 155.616,245.444 155.874,245.654 155.874 C 245.864 155.874,246.036 155.616,246.036 155.301 C 246.036 154.986,245.864 154.728,245.654 154.728 C 245.444 154.728,245.272 154.986,245.272 155.301 M161.605 156.829 C 161.605 157.144,161.777 157.402,161.987 157.402 C 162.197 157.402,162.369 157.144,162.369 156.829 C 162.369 156.514,162.197 156.256,161.987 156.256 C 161.777 156.256,161.605 156.514,161.605 156.829 M244.751 157.973 C 244.872 158.287,245.124 158.449,245.312 158.332 C 245.852 157.999,245.711 157.402,245.093 157.402 C 244.752 157.402,244.618 157.626,244.751 157.973 M243.362 162.178 C 243.362 162.493,243.534 162.751,243.744 162.751 C 243.954 162.751,244.126 162.493,244.126 162.178 C 244.126 161.862,243.954 161.605,243.744 161.605 C 243.534 161.605,243.362 161.862,243.362 162.178 M209.360 163.515 C 209.360 163.752,211.461 163.897,214.900 163.897 C 218.338 163.897,220.439 163.752,220.439 163.515 C 220.439 163.278,218.338 163.133,214.900 163.133 C 211.461 163.133,209.360 163.278,209.360 163.515 M200.462 163.753 C 199.806 164.409,200.250 165.043,201.365 165.043 C 202.277 165.043,202.511 164.894,202.412 164.374 C 202.282 163.690,200.949 163.266,200.462 163.753 M208.427 164.957 C 207.947 165.437,208.270 165.807,209.169 165.807 C 209.694 165.807,210.124 165.655,210.124 165.470 C 210.124 165.069,208.734 164.650,208.427 164.957 M215.091 165.807 C 215.091 166.017,215.606 166.189,216.237 166.189 C 216.867 166.189,217.383 166.017,217.383 165.807 C 217.383 165.597,216.867 165.425,216.237 165.425 C 215.606 165.425,215.091 165.597,215.091 165.807 M223.496 166.571 C 223.496 166.781,223.926 166.953,224.451 166.953 C 224.976 166.953,225.406 166.781,225.406 166.571 C 225.406 166.361,224.976 166.189,224.451 166.189 C 223.926 166.189,223.496 166.361,223.496 166.571 M231.614 166.856 C 230.708 167.161,231.140 167.717,232.283 167.717 C 232.913 167.717,233.429 167.565,233.429 167.380 C 233.429 166.969,232.272 166.635,231.614 166.856 M238.968 167.717 C 238.830 167.941,239.227 168.099,239.924 168.099 C 240.620 168.099,241.017 167.941,240.879 167.717 C 240.749 167.507,240.319 167.335,239.924 167.335 C 239.528 167.335,239.098 167.507,238.968 167.717 M344.986 168.290 C 344.986 168.606,345.158 168.863,345.368 168.863 C 345.578 168.863,345.750 168.606,345.750 168.290 C 345.750 167.975,345.578 167.717,345.368 167.717 C 345.158 167.717,344.986 167.975,344.986 168.290 M56.928 169.091 C 56.931 169.439,61.396 174.212,61.718 174.212 C 62.253 174.212,61.697 173.322,60.248 171.859 C 57.959 169.550,56.924 168.686,56.928 169.091 M123.782 169.220 C 123.782 169.416,124.129 169.686,124.552 169.820 C 124.975 169.955,125.234 170.206,125.127 170.379 C 125.020 170.552,125.204 170.798,125.535 170.925 C 126.573 171.323,126.548 171.189,125.369 170.010 C 124.174 168.814,123.782 168.619,123.782 169.220 M126.664 172.015 C 126.765 172.278,127.362 172.837,127.991 173.257 C 128.620 173.677,129.229 174.313,129.344 174.670 C 129.458 175.027,129.878 175.423,130.277 175.549 C 130.676 175.676,131.103 176.098,131.227 176.489 C 131.351 176.879,131.728 177.304,132.065 177.433 C 133.008 177.795,133.013 177.501,132.080 176.594 C 131.614 176.140,130.262 174.816,129.077 173.653 C 126.912 171.529,126.324 171.129,126.664 172.015 M345.374 172.015 C 345.387 173.106,346.120 173.664,346.126 172.588 C 346.129 172.011,345.960 171.538,345.750 171.538 C 345.540 171.538,345.370 171.753,345.374 172.015 M95.129 172.302 C 95.129 172.512,95.387 172.684,95.702 172.684 C 96.017 172.684,96.275 172.512,96.275 172.302 C 96.275 172.092,96.017 171.920,95.702 171.920 C 95.387 171.920,95.129 172.092,95.129 172.302 M144.222 175.651 C 143.604 176.105,142.363 177.650,142.617 177.650 C 142.885 177.650,144.795 175.793,144.795 175.532 C 144.795 175.295,144.670 175.321,144.222 175.651 M246.800 176.545 C 246.800 177.223,246.918 177.660,247.063 177.515 C 247.450 177.128,247.489 175.739,247.120 175.510 C 246.944 175.402,246.800 175.868,246.800 176.545 M245.354 179.393 C 244.874 179.905,244.633 180.325,244.818 180.325 C 245.224 180.325,246.800 178.998,246.800 178.656 C 246.800 178.178,246.211 178.478,245.354 179.393 M135.633 179.174 C 135.159 179.467,135.176 179.559,135.748 179.778 C 136.545 180.084,137.066 179.702,136.552 179.188 C 136.335 178.971,135.970 178.966,135.633 179.174 M138.926 179.062 C 138.496 179.492,138.664 179.943,139.255 179.943 C 139.570 179.943,139.828 179.781,139.828 179.583 C 139.828 179.101,139.231 178.756,138.926 179.062 M345.587 180.820 C 345.416 181.408,345.383 181.995,345.513 182.125 C 345.940 182.553,346.192 181.943,346.044 180.837 L 345.898 179.752 345.587 180.820 M54.250 181.853 C 54.250 182.063,54.680 182.235,55.205 182.235 C 55.731 182.235,56.160 182.063,56.160 181.853 C 56.160 181.643,55.731 181.471,55.205 181.471 C 54.680 181.471,54.250 181.643,54.250 181.853 M83.286 182.999 C 83.286 183.419,83.457 183.763,83.668 183.763 C 83.878 183.763,84.050 183.419,84.050 182.999 C 84.050 182.579,83.878 182.235,83.668 182.235 C 83.457 182.235,83.286 182.579,83.286 182.999 M236.867 183.381 C 236.867 183.591,237.125 183.763,237.440 183.763 C 237.755 183.763,238.013 183.591,238.013 183.381 C 238.013 183.171,237.755 182.999,237.440 182.999 C 237.125 182.999,236.867 183.171,236.867 183.381 M344.986 185.482 C 344.986 185.798,345.158 186.055,345.368 186.055 C 345.578 186.055,345.750 185.798,345.750 185.482 C 345.750 185.167,345.578 184.909,345.368 184.909 C 345.158 184.909,344.986 185.167,344.986 185.482 M84.432 185.498 C 84.432 185.929,92.126 193.389,92.344 193.170 C 92.470 193.044,90.880 191.219,88.810 189.116 C 85.429 185.679,84.432 184.855,84.432 185.498 M344.222 188.157 C 344.222 188.472,344.394 188.730,344.604 188.730 C 344.814 188.730,344.986 188.472,344.986 188.157 C 344.986 187.841,344.814 187.584,344.604 187.584 C 344.394 187.584,344.222 187.841,344.222 188.157 M237.631 196.944 C 237.631 197.259,237.803 197.517,238.013 197.517 C 238.223 197.517,238.395 197.259,238.395 196.944 C 238.395 196.628,238.223 196.371,238.013 196.371 C 237.803 196.371,237.631 196.628,237.631 196.944 M313.933 225.813 C 302.002 237.776,292.400 247.564,292.595 247.564 C 292.930 247.564,336.199 204.503,336.199 204.169 C 336.199 203.574,333.324 206.368,313.933 225.813 M235.721 209.169 C 235.721 209.484,235.893 209.742,236.103 209.742 C 236.313 209.742,236.485 209.484,236.485 209.169 C 236.485 208.854,236.313 208.596,236.103 208.596 C 235.893 208.596,235.721 208.854,235.721 209.169 M95.511 216.237 C 95.511 216.447,95.941 216.619,96.466 216.619 C 96.991 216.619,97.421 216.447,97.421 216.237 C 97.421 216.027,96.991 215.855,96.466 215.855 C 95.941 215.855,95.511 216.027,95.511 216.237 M133.980 216.099 C 133.675 216.404,134.020 217.001,134.502 217.001 C 134.700 217.001,134.862 216.743,134.862 216.428 C 134.862 215.837,134.411 215.669,133.980 216.099 M173.830 216.237 C 173.830 216.447,174.088 216.619,174.403 216.619 C 174.718 216.619,174.976 216.447,174.976 216.237 C 174.976 216.027,174.718 215.855,174.403 215.855 C 174.088 215.855,173.830 216.027,173.830 216.237 M99.887 218.720 C 102.156 220.865,103.087 221.488,101.778 219.986 C 100.240 218.219,98.484 216.619,98.084 216.619 C 97.854 216.619,98.665 217.564,99.887 218.720 M229.990 217.192 C 229.990 217.507,230.162 217.765,230.372 217.765 C 230.583 217.765,230.755 217.507,230.755 217.192 C 230.755 216.877,230.583 216.619,230.372 216.619 C 230.162 216.619,229.990 216.877,229.990 217.192 M171.735 217.746 C 171.605 218.155,171.172 218.594,170.774 218.720 C 170.375 218.847,169.942 219.285,169.812 219.695 C 169.682 220.104,169.436 220.439,169.265 220.439 C 168.836 220.439,161.223 228.019,161.223 228.447 C 161.223 228.637,160.887 228.899,160.478 229.029 C 160.068 229.159,159.630 229.592,159.503 229.990 C 159.377 230.389,158.954 230.817,158.564 230.941 C 157.868 231.162,157.214 232.222,157.560 232.568 C 157.793 232.801,172.684 217.829,172.684 217.362 C 172.684 216.703,171.975 216.989,171.735 217.746 M229.990 221.777 C 229.990 222.092,230.162 222.350,230.372 222.350 C 230.583 222.350,230.755 222.092,230.755 221.777 C 230.755 221.461,230.583 221.203,230.372 221.203 C 230.162 221.203,229.990 221.461,229.990 221.777 M105.675 225.249 C 105.415 225.926,105.682 226.552,106.231 226.552 C 106.428 226.552,106.590 226.122,106.590 225.597 C 106.590 224.528,106.033 224.317,105.675 225.249 M231.137 225.979 C 231.137 226.294,231.309 226.552,231.519 226.552 C 231.729 226.552,231.901 226.294,231.901 225.979 C 231.901 225.664,231.729 225.406,231.519 225.406 C 231.309 225.406,231.137 225.664,231.137 225.979 M115.377 230.181 C 115.377 230.497,115.537 230.755,115.732 230.755 C 115.927 230.755,116.365 231.033,116.705 231.373 C 117.684 232.352,117.819 231.697,116.865 230.599 C 115.893 229.481,115.377 229.337,115.377 230.181 M155.874 234.384 C 155.874 234.699,156.046 234.957,156.256 234.957 C 156.466 234.957,156.638 234.699,156.638 234.384 C 156.638 234.069,156.466 233.811,156.256 233.811 C 156.046 233.811,155.874 234.069,155.874 234.384 M197.135 235.148 C 197.135 235.463,197.307 235.721,197.517 235.721 C 197.727 235.721,197.899 235.463,197.899 235.148 C 197.899 234.833,197.727 234.575,197.517 234.575 C 197.307 234.575,197.135 234.833,197.135 235.148 M224.642 235.298 C 224.642 235.728,225.636 236.128,225.942 235.822 C 226.402 235.362,226.151 234.957,225.406 234.957 C 224.986 234.957,224.642 235.111,224.642 235.298 M210.506 236.103 C 210.506 236.313,210.764 236.485,211.079 236.485 C 211.394 236.485,211.652 236.313,211.652 236.103 C 211.652 235.893,211.394 235.721,211.079 235.721 C 210.764 235.721,210.506 235.893,210.506 236.103 M197.135 237.822 C 197.135 238.138,197.307 238.395,197.517 238.395 C 197.727 238.395,197.899 238.138,197.899 237.822 C 197.899 237.507,197.727 237.249,197.517 237.249 C 197.307 237.249,197.135 237.507,197.135 237.822 M204.011 238.013 C 204.011 238.223,204.269 238.395,204.585 238.395 C 204.900 238.395,205.158 238.223,205.158 238.013 C 205.158 237.803,204.900 237.631,204.585 237.631 C 204.269 237.631,204.011 237.803,204.011 238.013 M187.987 247.994 C 183.691 252.368,180.276 256.048,180.398 256.170 C 180.662 256.434,196.371 240.815,196.371 240.288 C 196.371 239.532,195.599 240.241,187.987 247.994 M197.135 245.845 C 197.135 246.160,197.307 246.418,197.517 246.418 C 197.727 246.418,197.899 246.160,197.899 245.845 C 197.899 245.530,197.727 245.272,197.517 245.272 C 197.307 245.272,197.135 245.530,197.135 245.845 M289.080 250.716 C 288.695 251.119,288.452 251.521,288.541 251.610 C 288.630 251.699,289.016 251.426,289.398 251.003 C 290.295 250.012,290.004 249.750,289.080 250.716 M196.371 255.014 C 196.371 255.330,196.543 255.587,196.753 255.587 C 196.963 255.587,197.135 255.330,197.135 255.014 C 197.135 254.699,196.963 254.441,196.753 254.441 C 196.543 254.441,196.371 254.699,196.371 255.014 M175.931 257.116 C 175.797 257.332,176.118 257.498,176.673 257.498 C 177.210 257.498,177.650 257.326,177.650 257.116 C 177.650 256.905,177.317 256.734,176.909 256.734 C 176.501 256.734,176.061 256.905,175.931 257.116 M202.865 267.267 C 202.865 267.673,204.046 268.670,204.266 268.450 C 204.386 268.329,204.218 267.965,203.893 267.640 C 203.287 267.033,202.865 266.880,202.865 267.267 M139.255 275.454 C 139.385 275.664,139.825 275.836,140.233 275.836 C 140.641 275.836,140.974 275.664,140.974 275.454 C 140.974 275.244,140.534 275.072,139.997 275.072 C 139.442 275.072,139.121 275.237,139.255 275.454 M192.653 285.498 C 191.555 286.592,190.437 287.695,190.170 287.947 C 189.903 288.200,189.475 288.630,189.218 288.902 C 188.961 289.175,188.572 289.570,188.353 289.780 C 185.668 292.355,182.213 296.189,182.405 296.381 C 182.636 296.612,195.224 284.151,195.224 283.691 C 195.224 283.149,194.500 283.658,192.653 285.498 M126.839 288.252 C 126.839 288.777,127.011 289.207,127.221 289.207 C 127.431 289.207,127.603 288.777,127.603 288.252 C 127.603 287.727,127.431 287.297,127.221 287.297 C 127.011 287.297,126.839 287.727,126.839 288.252 M228.462 288.634 C 228.462 288.984,228.647 289.209,228.873 289.134 C 229.099 289.059,229.284 288.834,229.284 288.634 C 229.284 288.435,229.099 288.210,228.873 288.134 C 228.647 288.059,228.462 288.284,228.462 288.634 M210.506 289.720 C 210.506 290.042,211.721 291.348,218.215 297.999 C 220.878 300.728,223.156 302.961,223.277 302.961 C 224.125 302.961,222.754 301.367,218.448 297.344 C 218.177 297.091,217.749 296.662,217.497 296.389 C 217.244 296.116,216.814 295.686,216.542 295.434 C 216.269 295.181,215.836 294.751,215.579 294.479 C 215.322 294.206,214.931 293.811,214.710 293.601 C 214.488 293.391,214.006 292.875,213.637 292.455 C 212.534 291.198,210.506 289.426,210.506 289.720 M127.603 290.544 C 127.603 290.860,127.775 291.117,127.985 291.117 C 128.195 291.117,128.367 290.860,128.367 290.544 C 128.367 290.229,128.195 289.971,127.985 289.971 C 127.775 289.971,127.603 290.229,127.603 290.544 M230.372 293.601 C 230.372 293.951,230.557 294.176,230.783 294.101 C 231.009 294.025,231.194 293.800,231.194 293.601 C 231.194 293.401,231.009 293.176,230.783 293.101 C 230.557 293.026,230.372 293.251,230.372 293.601 M131.683 294.423 C 131.574 294.532,132.029 295.108,132.695 295.703 C 134.262 297.103,134.481 296.885,133.014 295.384 C 132.391 294.747,131.792 294.314,131.683 294.423 M134.261 297.274 C 134.083 297.562,134.142 297.630,134.420 297.458 C 134.663 297.308,134.862 297.352,134.862 297.557 C 134.862 298.028,137.532 300.799,137.764 300.568 C 138.095 300.237,137.447 299.321,136.001 298.074 C 134.982 297.196,134.459 296.955,134.261 297.274 M144.205 298.512 C 143.660 299.108,143.187 299.904,143.376 299.904 C 143.792 299.904,145.175 298.421,144.909 298.260 C 144.741 298.158,144.424 298.271,144.205 298.512 M238.406 301.036 C 238.097 301.231,237.944 301.490,238.065 301.612 C 238.366 301.913,239.542 301.433,239.542 301.010 C 239.542 300.574,239.121 300.584,238.406 301.036 M231.901 306.017 C 231.901 306.227,232.159 306.399,232.474 306.399 C 232.789 306.399,233.047 306.227,233.047 306.017 C 233.047 305.807,232.789 305.635,232.474 305.635 C 232.159 305.635,231.901 305.807,231.901 306.017 M214.804 320.764 C 207.687 327.937,206.119 329.704,206.868 329.704 C 206.969 329.704,209.551 327.168,212.606 324.069 C 215.661 320.969,218.287 318.307,218.441 318.153 C 218.594 317.999,219.795 316.836,221.108 315.570 C 223.271 313.484,223.989 312.451,223.209 312.547 C 223.052 312.566,219.269 316.264,214.804 320.764 M197.135 333.142 C 197.135 333.352,197.393 333.524,197.708 333.524 C 198.023 333.524,198.281 333.352,198.281 333.142 C 198.281 332.932,198.023 332.760,197.708 332.760 C 197.393 332.760,197.135 332.932,197.135 333.142 " stroke="none" fill="#8884ac" fill-rule="evenodd"></path><path id="path2" d="M205.540 54.796 C 205.540 55.132,206.756 56.160,207.154 56.160 C 207.381 56.160,207.170 55.817,206.686 55.396 C 205.801 54.629,205.540 54.492,205.540 54.796 M208.214 57.467 C 208.214 57.601,209.459 58.857,211.650 60.936 C 211.871 61.146,212.908 62.246,213.954 63.381 C 214.999 64.515,215.855 65.239,215.855 64.989 C 215.855 64.739,214.237 62.908,212.259 60.920 C 209.007 57.653,208.214 56.976,208.214 57.467 M188.157 82.130 C 189.876 84.258,193.008 87.105,193.618 87.094 C 194.168 87.085,194.151 87.016,193.505 86.652 C 193.085 86.416,191.960 85.432,191.006 84.467 C 190.051 83.502,188.848 82.369,188.331 81.948 L 187.393 81.184 188.157 82.130 M138.395 83.921 C 138.133 84.027,137.918 84.357,137.918 84.655 C 137.918 84.952,137.717 85.196,137.472 85.196 C 137.227 85.196,137.147 85.316,137.295 85.464 C 137.442 85.611,137.993 85.268,138.520 84.700 C 139.442 83.705,139.411 83.511,138.395 83.921 M174.021 94.245 C 172.419 96.162,171.913 96.657,171.551 96.657 C 171.379 96.657,171.135 96.924,171.010 97.250 C 170.855 97.653,170.934 97.751,171.256 97.556 C 172.057 97.071,175.740 93.432,175.740 93.126 C 175.740 92.521,175.127 92.921,174.021 94.245 M84.909 126.646 C 84.647 126.944,84.432 127.349,84.432 127.546 C 84.432 128.524,85.391 128.164,85.427 127.171 C 85.450 126.568,85.450 126.081,85.427 126.089 C 85.405 126.097,85.172 126.348,84.909 126.646 M325.713 138.682 C 326.367 139.878,331.614 145.330,331.614 144.813 C 331.614 144.612,330.216 143.020,328.507 141.278 C 326.798 139.535,325.541 138.367,325.713 138.682 M118.766 145.952 C 116.635 148.060,114.982 149.875,115.093 149.987 C 115.336 150.230,119.198 146.431,119.198 145.948 C 119.198 145.762,119.533 145.504,119.942 145.374 C 120.352 145.244,120.790 144.811,120.917 144.413 C 121.043 144.014,121.466 143.586,121.856 143.462 C 122.474 143.267,123.295 142.120,122.818 142.120 C 122.721 142.120,120.898 143.845,118.766 145.952 M159.312 149.348 C 159.312 149.734,160.799 150.699,161.027 150.461 C 161.093 150.391,160.735 150.025,160.230 149.648 C 159.725 149.270,159.312 149.135,159.312 149.348 M115.084 160.458 C 115.346 160.879,115.677 161.223,115.818 161.223 C 116.091 161.223,122.589 167.787,123.043 168.522 C 123.191 168.761,123.522 168.886,123.779 168.801 C 124.172 168.670,122.338 166.745,115.921 160.554 C 114.818 159.489,114.453 159.448,115.084 160.458 M159.544 160.299 C 159.185 161.233,159.263 161.326,159.885 160.704 C 160.535 160.055,160.618 159.694,160.117 159.694 C 159.930 159.694,159.672 159.966,159.544 160.299 M220.439 163.515 C 220.439 163.727,221.458 163.897,222.732 163.897 C 224.005 163.897,225.024 163.727,225.024 163.515 C 225.024 163.303,224.005 163.133,222.732 163.133 C 221.458 163.133,220.439 163.303,220.439 163.515 M151.728 167.973 C 149.343 170.381,147.487 172.447,147.603 172.563 C 147.798 172.758,156.638 164.074,156.638 163.687 C 156.638 163.151,155.638 164.025,151.728 167.973 M202.373 164.279 C 202.482 164.699,202.704 165.043,202.865 165.043 C 203.026 165.043,203.248 164.699,203.358 164.279 C 203.504 163.722,203.370 163.515,202.865 163.515 C 202.361 163.515,202.227 163.722,202.373 164.279 M54.250 168.481 C 54.250 168.691,54.508 168.863,54.823 168.863 C 55.138 168.863,55.396 168.691,55.396 168.481 C 55.396 168.271,55.138 168.099,54.823 168.099 C 54.508 168.099,54.250 168.271,54.250 168.481 M144.778 174.912 C 144.238 175.350,144.114 175.609,144.450 175.602 C 145.027 175.591,146.548 174.212,145.983 174.212 C 145.796 174.212,145.254 174.527,144.778 174.912 M244.795 180.232 C 244.427 180.314,244.126 180.540,244.126 180.735 C 244.126 181.182,244.540 181.178,245.261 180.722 C 245.947 180.288,245.702 180.030,244.795 180.232 M234.730 210.829 C 234.891 211.091,234.759 211.270,234.407 211.270 C 234.079 211.270,233.811 211.442,233.811 211.652 C 233.811 212.205,234.409 212.121,234.929 211.495 C 235.271 211.083,235.268 210.890,234.917 210.672 C 234.625 210.492,234.557 210.550,234.730 210.829 M94.412 216.888 C 93.845 217.113,91.682 219.412,91.865 219.595 C 91.926 219.656,92.721 219.011,93.631 218.162 C 94.541 217.313,95.208 216.632,95.112 216.649 C 95.016 216.666,94.701 216.773,94.412 216.888 M103.089 221.995 C 103.983 222.872,104.782 223.521,104.865 223.439 C 105.121 223.182,103.001 220.978,102.212 220.683 C 101.781 220.521,102.153 221.078,103.089 221.995 M86.487 225.197 C 86.370 225.502,86.387 225.934,86.525 226.158 C 86.828 226.647,87.490 226.309,87.482 225.670 C 87.479 225.389,87.320 225.434,87.067 225.788 C 86.738 226.248,86.695 226.192,86.846 225.501 C 87.056 224.542,86.817 224.338,86.487 225.197 M103.954 228.691 C 102.836 229.978,103.133 230.275,104.298 229.035 C 104.790 228.512,105.107 227.998,105.003 227.894 C 104.898 227.789,104.427 228.148,103.954 228.691 M95.511 235.339 C 95.511 235.549,95.984 235.718,96.562 235.715 C 97.380 235.711,97.486 235.628,97.039 235.339 C 96.292 234.856,95.511 234.856,95.511 235.339 M197.135 236.263 C 197.135 236.561,197.015 237.120,196.870 237.505 C 196.621 238.160,196.645 238.164,197.252 237.563 C 197.960 236.861,198.124 235.721,197.517 235.721 C 197.307 235.721,197.135 235.965,197.135 236.263 M276.737 263.005 C 270.404 269.397,265.099 274.855,264.948 275.135 C 264.796 275.415,265.830 274.484,267.244 273.066 C 268.659 271.648,269.956 270.487,270.126 270.487 C 270.296 270.487,270.549 270.130,270.687 269.694 C 270.826 269.258,271.021 268.984,271.121 269.084 C 271.381 269.343,284.623 256.028,284.623 255.508 C 284.623 255.271,284.720 255.176,284.839 255.295 C 285.120 255.575,287.072 253.669,287.412 252.782 C 287.556 252.407,287.847 252.208,288.058 252.338 C 288.270 252.469,288.443 252.308,288.443 251.981 C 288.443 251.135,289.282 250.345,276.737 263.005 M197.135 258.048 C 197.135 258.351,197.307 258.705,197.517 258.835 C 197.727 258.965,197.899 258.717,197.899 258.284 C 197.899 257.852,197.727 257.498,197.517 257.498 C 197.307 257.498,197.135 257.745,197.135 258.048 M211.270 273.926 C 211.270 274.136,211.657 274.305,212.130 274.302 C 212.825 274.297,212.880 274.225,212.416 273.926 C 211.676 273.447,211.270 273.447,211.270 273.926 M204.776 283.974 C 204.776 284.567,210.129 290.094,210.421 289.802 C 210.595 289.628,208.537 287.251,207.145 286.017 C 206.873 285.775,206.228 285.150,205.713 284.627 C 205.197 284.103,204.776 283.810,204.776 283.974 M151.541 290.887 C 151.211 291.391,149.523 293.189,147.789 294.884 C 146.056 296.578,144.735 298.062,144.854 298.181 C 145.116 298.443,149.379 294.246,149.379 293.728 C 149.379 293.528,149.520 293.452,149.692 293.558 C 149.863 293.664,150.250 293.395,150.551 292.960 C 150.852 292.526,151.313 291.945,151.576 291.671 C 151.839 291.397,152.053 291.002,152.053 290.795 C 152.053 290.587,152.268 290.330,152.531 290.224 C 152.837 290.101,152.852 290.021,152.575 290.002 C 152.336 289.985,151.871 290.383,151.541 290.887 M130.307 293.123 C 130.291 293.491,130.521 293.792,130.818 293.792 C 131.116 293.792,131.446 294.007,131.552 294.269 C 131.667 294.555,131.757 294.478,131.775 294.078 C 131.792 293.711,131.562 293.410,131.264 293.410 C 130.966 293.410,130.636 293.195,130.530 292.932 C 130.415 292.647,130.325 292.724,130.307 293.123 M232.801 301.590 C 232.831 302.093,232.985 302.426,233.142 302.329 C 233.538 302.084,233.502 301.141,233.087 300.885 C 232.900 300.769,232.771 301.086,232.801 301.590 M231.901 305.400 C 231.901 305.739,233.446 305.916,233.642 305.599 C 233.760 305.409,233.416 305.253,232.878 305.253 C 232.341 305.253,231.901 305.319,231.901 305.400 " stroke="none" fill="#645f94" fill-rule="evenodd"></path><path id="path3" d="M231.931 46.882 C 231.914 47.138,232.233 47.525,232.640 47.742 C 233.564 48.237,233.811 48.239,233.811 47.755 C 233.811 47.545,233.481 47.373,233.079 47.373 C 232.676 47.373,232.260 47.159,232.154 46.896 C 232.008 46.536,231.954 46.533,231.931 46.882 M201.564 50.866 C 203.230 52.737,204.499 53.890,204.687 53.702 C 204.797 53.592,204.076 52.725,203.085 51.775 C 201.220 49.988,200.287 49.430,201.564 50.866 M207.163 56.424 C 207.531 56.520,207.832 56.854,207.832 57.166 C 207.832 57.478,208.012 57.622,208.232 57.486 C 208.789 57.142,207.922 56.147,207.117 56.205 C 206.592 56.242,206.599 56.276,207.163 56.424 M179.855 74.117 C 180.306 74.537,180.795 74.881,180.941 74.881 C 181.087 74.881,180.896 74.537,180.516 74.117 C 180.135 73.696,179.647 73.352,179.429 73.352 C 179.212 73.352,179.404 73.696,179.855 74.117 M181.853 75.803 C 181.853 76.160,184.599 78.757,184.782 78.574 C 184.891 78.464,184.348 77.761,183.575 77.010 C 182.242 75.715,181.853 75.443,181.853 75.803 M141.030 81.231 C 139.696 82.571,138.768 83.668,138.968 83.668 C 139.445 83.668,141.738 81.472,141.738 81.016 C 141.738 80.822,142.066 80.559,142.467 80.431 C 143.097 80.232,143.866 79.145,143.562 78.884 C 143.505 78.835,142.365 79.891,141.030 81.231 M187.775 81.757 C 187.645 81.968,187.592 82.153,187.657 82.169 C 188.914 82.480,189.128 82.429,188.704 81.918 C 188.169 81.273,188.083 81.258,187.775 81.757 M222.860 91.525 C 222.734 91.855,222.825 92.319,223.063 92.557 C 223.385 92.879,223.496 92.726,223.496 91.958 C 223.496 90.809,223.210 90.614,222.860 91.525 M167.881 100.425 C 166.259 101.973,164.266 104.298,164.561 104.298 C 164.733 104.298,165.161 103.997,165.512 103.629 C 165.863 103.262,166.374 102.741,166.647 102.473 C 168.051 101.094,168.927 100.032,168.781 99.885 C 168.691 99.795,168.285 100.038,167.881 100.425 M85.960 130.235 C 85.960 130.880,95.985 140.593,96.637 140.581 C 97.079 140.572,97.035 140.458,96.466 140.134 C 96.046 139.895,93.510 137.480,90.831 134.767 C 88.152 132.054,85.960 130.015,85.960 130.235 M127.507 137.166 C 124.827 139.866,122.764 142.145,122.922 142.231 C 123.080 142.317,125.468 140.093,128.228 137.287 C 130.989 134.482,133.052 132.203,132.813 132.222 C 132.574 132.241,130.186 134.466,127.507 137.166 M322.908 136.197 C 324.468 138.005,325.883 139.361,325.883 139.046 C 325.883 138.558,323.212 135.626,322.768 135.626 C 322.574 135.626,322.637 135.883,322.908 136.197 M150.143 139.959 C 150.143 140.127,151.261 141.377,152.627 142.736 C 153.992 144.095,155.110 145.360,155.110 145.548 C 155.110 145.736,155.445 145.996,155.854 146.126 C 156.264 146.256,156.702 146.688,156.829 147.087 C 156.956 147.486,157.370 147.910,157.749 148.031 C 158.129 148.151,158.624 148.633,158.850 149.101 L 159.261 149.952 159.286 149.093 C 159.301 148.620,159.174 148.233,159.006 148.233 C 158.753 148.233,156.509 146.116,154.460 143.944 C 154.207 143.677,153.777 143.251,153.504 142.998 C 153.232 142.746,152.795 142.316,152.535 142.043 C 151.006 140.442,150.143 139.690,150.143 139.959 M157.865 161.919 C 157.174 162.640,156.684 163.306,156.776 163.398 C 157.021 163.643,159.389 161.247,159.244 160.901 C 159.177 160.739,158.556 161.197,157.865 161.919 M225.024 163.515 C 225.024 163.725,225.626 163.897,226.361 163.897 C 227.096 163.897,227.698 163.725,227.698 163.515 C 227.698 163.305,227.096 163.133,226.361 163.133 C 225.626 163.133,225.024 163.305,225.024 163.515 M93.613 172.580 C 93.113 173.144,93.126 173.183,93.740 172.948 C 94.118 172.803,94.499 172.684,94.587 172.684 C 94.675 172.684,94.747 172.512,94.747 172.302 C 94.747 171.740,94.252 171.861,93.613 172.580 M236.199 199.640 C 235.636 200.251,235.589 200.573,236.062 200.573 C 236.388 200.573,236.998 199.424,236.781 199.220 C 236.723 199.166,236.461 199.355,236.199 199.640 M89.455 221.434 C 88.639 222.357,89.255 222.513,90.209 221.624 C 90.795 221.078,90.894 220.826,90.521 220.836 C 90.219 220.844,89.739 221.113,89.455 221.434 M100.366 232.307 C 99.359 233.344,98.370 234.193,98.169 234.193 C 97.968 234.193,97.803 234.359,97.803 234.563 C 97.803 234.767,98.100 234.819,98.462 234.680 C 99.252 234.377,102.388 231.213,102.388 230.719 C 102.388 230.225,102.385 230.227,100.366 232.307 M157.784 240.586 C 157.784 240.785,158.386 241.495,159.121 242.164 C 159.857 242.833,160.458 243.537,160.458 243.728 C 160.458 243.918,160.815 244.188,161.251 244.326 C 161.687 244.465,161.962 244.660,161.862 244.760 C 161.640 244.982,172.230 255.587,172.673 255.587 C 172.846 255.587,171.328 253.908,169.301 251.854 C 159.613 242.040,157.784 240.251,157.784 240.586 M263.639 276.045 C 262.768 276.941,262.576 277.298,263.066 277.113 C 263.979 276.766,264.533 276.225,264.861 275.358 C 265.201 274.461,265.149 274.490,263.639 276.045 M257.259 282.502 C 254.921 284.884,252.891 287.024,252.747 287.257 C 251.983 288.493,253.839 286.839,256.612 283.813 C 257.070 283.313,257.671 282.697,257.949 282.444 C 258.226 282.192,258.659 281.762,258.912 281.489 C 259.165 281.216,259.594 280.780,259.867 280.520 C 261.528 278.933,262.211 278.131,261.883 278.149 C 261.677 278.160,259.596 280.119,257.259 282.502 M238.946 300.459 C 238.231 300.993,238.235 301.005,239.070 300.794 C 239.546 300.675,240.029 300.425,240.143 300.240 C 240.466 299.718,239.767 299.845,238.946 300.459 M231.901 304.871 C 231.901 305.081,232.287 305.250,232.760 305.247 C 233.455 305.243,233.510 305.171,233.047 304.871 C 232.306 304.392,231.901 304.392,231.901 304.871 " stroke="none" fill="#5c548c" fill-rule="evenodd"></path><path id="path4" d="M212.872 41.289 C 212.947 41.515,213.155 41.676,213.334 41.647 C 213.513 41.618,213.852 41.979,214.088 42.448 C 214.324 42.918,214.897 43.329,215.360 43.362 C 215.823 43.395,216.113 43.280,216.006 43.106 C 215.898 42.932,215.476 42.789,215.068 42.789 C 214.043 42.789,214.134 42.115,215.186 41.912 C 215.923 41.770,215.896 41.739,214.995 41.695 C 214.417 41.666,213.945 41.471,213.945 41.261 C 213.945 41.051,213.672 40.879,213.340 40.879 C 213.007 40.879,212.796 41.064,212.872 41.289 M221.291 42.479 C 221.374 42.728,221.646 43.000,221.896 43.083 C 222.175 43.177,222.261 43.002,222.118 42.630 C 221.851 41.935,221.062 41.791,221.291 42.479 M218.665 46.108 C 219.052 46.567,219.255 47.126,219.117 47.349 C 218.979 47.573,219.134 47.755,219.462 47.755 C 220.339 47.755,220.190 47.242,219.009 46.198 C 218.130 45.422,218.075 45.407,218.665 46.108 M195.838 49.125 C 195.695 49.497,195.781 49.671,196.060 49.578 C 196.631 49.388,196.945 48.520,196.443 48.520 C 196.238 48.520,195.966 48.792,195.838 49.125 M197.994 48.997 C 198.082 49.260,198.471 49.536,198.859 49.611 C 199.507 49.737,199.514 49.698,198.950 49.134 C 198.216 48.400,197.774 48.337,197.994 48.997 M234.575 49.296 C 234.575 49.594,235.517 50.048,236.134 50.048 C 236.907 50.048,236.423 49.361,235.530 49.190 C 235.005 49.090,234.575 49.137,234.575 49.296 M199.809 49.517 C 199.809 49.708,203.456 53.472,207.914 57.883 C 212.372 62.294,215.595 65.414,215.077 64.816 C 212.959 62.373,199.809 49.196,199.809 49.517 M280.214 93.998 C 303.949 117.716,323.428 137.063,323.499 136.992 C 323.570 136.921,323.349 136.584,323.009 136.244 C 322.552 135.788,322.523 135.624,322.895 135.620 C 323.279 135.615,323.267 135.529,322.845 135.263 C 322.540 135.070,322.153 134.997,321.986 135.100 C 321.818 135.204,321.681 135.093,321.681 134.855 C 321.681 134.350,320.915 133.504,316.243 128.846 C 314.926 127.534,313.653 126.244,313.413 125.981 C 313.174 125.717,311.283 123.830,309.211 121.787 C 307.139 119.744,305.242 117.853,304.994 117.584 C 304.613 117.171,294.062 106.620,292.791 105.380 C 292.555 105.151,291.696 104.318,290.880 103.528 C 290.065 102.739,288.775 101.429,288.012 100.617 C 287.250 99.805,285.359 97.899,283.810 96.383 C 282.261 94.866,280.787 93.405,280.534 93.135 C 280.281 92.866,279.852 92.436,279.579 92.179 C 279.306 91.922,278.873 91.492,278.615 91.224 C 277.990 90.571,268.894 81.436,268.304 80.867 C 268.048 80.621,267.618 80.214,267.349 79.961 C 267.079 79.708,266.654 79.279,266.406 79.006 C 266.157 78.733,263.793 76.377,261.152 73.769 C 258.512 71.161,256.351 68.895,256.351 68.733 C 256.351 68.570,256.016 68.331,255.607 68.201 C 255.197 68.071,254.759 67.638,254.632 67.240 C 254.506 66.841,254.076 66.411,253.677 66.285 C 253.278 66.158,252.849 65.728,252.722 65.330 C 252.596 64.931,252.200 64.511,251.843 64.396 C 251.486 64.282,250.857 63.683,250.445 63.067 C 250.033 62.450,249.560 62.029,249.394 62.132 C 249.228 62.234,249.093 62.148,249.093 61.940 C 249.093 61.732,248.208 60.733,247.127 59.720 C 246.046 58.708,244.972 57.657,244.739 57.384 C 244.507 57.111,244.100 56.681,243.835 56.429 C 243.571 56.176,242.688 55.325,241.875 54.537 C 241.061 53.749,240.209 53.104,239.982 53.104 C 239.754 53.104,239.003 52.603,238.313 51.990 C 237.623 51.377,256.478 70.281,280.214 93.998 M225.406 61.696 C 225.406 61.833,225.682 62.222,226.020 62.560 C 226.585 63.124,226.623 63.117,226.498 62.469 C 226.371 61.816,225.406 61.133,225.406 61.696 M178.547 65.179 C 178.400 65.577,178.095 66.029,177.869 66.183 C 177.617 66.356,177.700 66.466,178.083 66.470 C 178.427 66.473,178.807 66.096,178.928 65.633 C 179.206 64.569,178.905 64.211,178.547 65.179 M177.746 67.453 C 177.183 68.064,177.136 68.386,177.610 68.386 C 177.935 68.386,178.546 67.236,178.328 67.033 C 178.271 66.979,178.009 67.168,177.746 67.453 M148.366 73.898 C 145.812 76.500,143.611 78.981,143.475 79.410 C 143.339 79.839,142.892 80.296,142.483 80.426 C 142.073 80.556,141.738 80.815,141.738 81.002 C 141.738 81.572,139.802 83.314,139.426 83.082 C 139.232 82.962,139.175 83.131,139.300 83.457 C 139.425 83.783,139.356 84.050,139.146 84.050 C 138.936 84.050,138.655 84.351,138.523 84.718 C 138.294 85.352,141.077 82.621,150.203 73.257 C 152.405 70.998,153.936 69.154,153.607 69.158 C 153.278 69.162,150.919 71.295,148.366 73.898 M177.268 69.368 C 177.268 69.488,177.526 69.844,177.841 70.160 C 178.463 70.782,178.541 70.689,178.183 69.754 C 177.965 69.186,177.268 68.892,177.268 69.368 M179.047 72.415 C 179.254 72.955,180.655 74.409,183.193 76.718 C 183.727 77.203,184.046 77.788,183.904 78.018 C 183.749 78.269,183.821 78.328,184.084 78.166 C 184.343 78.006,185.601 78.958,187.161 80.495 C 188.612 81.925,190.719 83.952,191.843 84.999 C 192.968 86.047,190.537 83.511,186.441 79.364 C 178.521 71.344,178.701 71.514,179.047 72.415 M227.316 73.161 C 227.316 73.687,227.488 74.117,227.698 74.117 C 227.908 74.117,228.080 73.687,228.080 73.161 C 228.080 72.636,227.908 72.206,227.698 72.206 C 227.488 72.206,227.316 72.636,227.316 73.161 M137.536 86.278 C 137.536 86.734,137.364 87.106,137.154 87.106 C 136.944 87.106,136.772 87.278,136.772 87.488 C 136.772 87.698,136.940 87.870,137.146 87.870 C 137.589 87.870,138.117 86.031,137.773 85.687 C 137.642 85.557,137.536 85.823,137.536 86.278 M194.108 87.157 C 194.092 87.500,194.422 87.871,194.842 87.981 C 195.263 88.091,195.606 88.025,195.606 87.834 C 195.606 87.644,195.363 87.488,195.065 87.488 C 194.768 87.488,194.437 87.273,194.331 87.011 C 194.209 86.707,194.128 86.761,194.108 87.157 M225.279 87.361 C 225.138 87.501,225.024 87.916,225.024 88.284 C 225.024 88.652,224.848 89.040,224.632 89.147 C 224.417 89.254,224.451 89.300,224.707 89.249 C 224.963 89.199,225.297 88.696,225.448 88.132 C 225.733 87.063,225.705 86.934,225.279 87.361 M174.294 93.326 C 173.199 94.436,172.302 95.489,172.302 95.666 C 172.302 95.960,174.812 93.485,176.074 91.948 C 177.117 90.676,176.244 91.352,174.294 93.326 M171.026 96.589 C 170.677 96.975,170.392 97.438,170.392 97.619 C 170.392 97.800,170.753 97.560,171.194 97.086 C 171.635 96.612,171.921 96.149,171.828 96.056 C 171.736 95.964,171.375 96.204,171.026 96.589 M168.704 98.981 C 168.127 99.629,167.726 100.231,167.813 100.319 C 167.901 100.406,168.445 99.948,169.023 99.300 C 169.600 98.651,170.001 98.049,169.913 97.962 C 169.826 97.874,169.282 98.333,168.704 98.981 M225.406 98.034 C 225.406 98.147,225.664 98.498,225.979 98.813 C 226.476 99.310,226.552 99.312,226.552 98.827 C 226.552 98.519,226.294 98.168,225.979 98.047 C 225.664 97.926,225.406 97.920,225.406 98.034 M163.801 104.018 C 160.465 107.505,160.575 107.352,161.605 107.083 C 162.025 106.973,162.369 106.721,162.369 106.523 C 162.369 106.325,162.536 106.266,162.740 106.392 C 162.943 106.518,163.220 106.185,163.354 105.651 C 163.488 105.117,163.847 104.680,164.152 104.680 C 164.457 104.680,164.609 104.523,164.490 104.331 C 164.371 104.138,164.404 103.921,164.563 103.848 C 165.116 103.593,167.483 100.860,167.124 100.892 C 166.925 100.909,165.430 102.316,163.801 104.018 M222.350 102.324 C 222.350 102.569,221.920 102.770,221.394 102.770 C 220.869 102.770,220.439 102.918,220.439 103.099 C 220.439 103.522,222.289 103.177,222.584 102.699 C 222.707 102.500,222.705 102.234,222.579 102.108 C 222.453 101.982,222.350 102.079,222.350 102.324 M239.783 107.622 C 239.298 108.107,239.559 108.576,240.180 108.337 C 240.531 108.202,240.957 108.313,241.129 108.583 C 241.359 108.946,241.442 108.953,241.446 108.609 C 241.453 108.060,240.130 107.275,239.783 107.622 M229.990 108.500 C 229.990 108.711,230.248 108.883,230.564 108.883 C 230.879 108.883,231.137 108.711,231.137 108.500 C 231.137 108.290,230.879 108.118,230.564 108.118 C 230.248 108.118,229.990 108.290,229.990 108.500 M205.540 108.860 C 205.540 109.189,205.229 109.270,204.585 109.108 C 203.830 108.918,203.636 109.010,203.660 109.544 C 203.676 109.916,203.770 110.023,203.869 109.783 C 203.967 109.542,204.364 109.428,204.751 109.529 C 205.454 109.713,206.200 109.034,205.769 108.602 C 205.643 108.476,205.540 108.592,205.540 108.860 M224.271 108.868 C 223.962 109.063,223.842 109.356,224.005 109.519 C 224.168 109.682,224.422 109.620,224.570 109.380 C 224.718 109.141,225.440 108.872,226.173 108.784 L 227.507 108.623 226.170 108.567 C 225.435 108.537,224.580 108.672,224.271 108.868 M217.861 109.518 C 217.195 109.786,217.262 110.411,217.956 110.411 C 218.271 110.411,218.529 110.251,218.529 110.057 C 218.529 109.862,218.830 109.624,219.198 109.528 C 219.750 109.383,219.734 109.351,219.102 109.339 C 218.682 109.331,218.123 109.412,217.861 109.518 M211.270 110.411 C 211.270 110.621,211.518 110.793,211.821 110.793 C 212.124 110.793,212.478 110.621,212.607 110.411 C 212.737 110.201,212.490 110.029,212.057 110.029 C 211.624 110.029,211.270 110.201,211.270 110.411 M200.197 110.661 C 200.194 110.914,199.864 111.018,199.427 110.903 C 198.841 110.750,198.663 110.892,198.663 111.512 C 198.663 112.066,198.904 112.321,199.427 112.321 C 199.847 112.321,200.191 112.079,200.191 111.784 C 200.191 111.434,200.491 111.302,201.051 111.406 C 201.536 111.496,201.660 111.455,201.337 111.313 C 201.022 111.174,200.638 110.871,200.483 110.640 C 200.283 110.340,200.201 110.347,200.197 110.661 M206.977 110.681 C 207.452 110.772,208.140 110.769,208.505 110.673 C 208.870 110.578,208.481 110.503,207.641 110.507 C 206.800 110.511,206.502 110.590,206.977 110.681 M246.036 126.457 C 246.036 126.667,246.208 126.839,246.418 126.839 C 246.628 126.839,246.800 127.125,246.800 127.475 C 246.800 127.826,246.902 128.010,247.026 127.886 C 247.345 127.567,246.823 126.074,246.393 126.074 C 246.197 126.074,246.036 126.246,246.036 126.457 M90.729 134.670 C 93.753 137.717,96.360 140.210,96.523 140.210 C 96.982 140.210,86.211 129.249,85.691 129.186 C 85.438 129.156,87.705 131.624,90.729 134.670 M106.012 135.339 L 100.669 140.783 106.113 135.440 C 111.170 130.476,111.730 129.895,111.456 129.895 C 111.401 129.895,108.951 132.345,106.012 135.339 M138.395 130.755 C 138.483 131.017,138.872 131.294,139.260 131.369 C 139.908 131.494,139.915 131.456,139.351 130.891 C 138.617 130.157,138.175 130.094,138.395 130.755 M141.386 131.635 C 141.351 132.109,154.478 145.282,154.957 145.254 C 155.135 145.243,155.316 145.045,155.358 144.814 C 155.401 144.579,155.351 144.561,155.245 144.773 C 155.065 145.130,150.143 140.544,150.143 140.019 C 150.143 139.730,149.986 139.554,146.609 136.067 C 145.191 134.602,144.031 133.512,144.031 133.644 C 144.031 133.777,143.763 133.503,143.436 133.036 C 143.109 132.569,142.607 132.187,142.322 132.187 C 142.036 132.187,141.715 131.972,141.609 131.710 C 141.503 131.447,141.403 131.413,141.386 131.635 M132.783 132.751 C 132.164 133.257,131.493 133.568,131.291 133.443 C 131.089 133.318,131.039 133.404,131.182 133.634 C 131.503 134.154,129.920 135.686,129.396 135.362 C 129.185 135.232,129.126 135.309,129.265 135.533 C 129.403 135.757,126.257 139.241,122.256 143.295 C 118.262 147.340,114.995 150.822,114.995 151.033 C 114.995 151.244,115.038 151.339,115.091 151.243 C 115.143 151.148,119.483 146.735,124.734 141.437 C 129.986 136.140,134.198 131.811,134.095 131.819 C 133.991 131.826,133.401 132.246,132.783 132.751 M247.182 139.828 C 247.182 142.460,247.301 143.291,247.660 143.171 C 247.991 143.061,248.138 142.035,248.138 139.828 C 248.138 137.621,247.991 136.596,247.660 136.485 C 247.301 136.366,247.182 137.196,247.182 139.828 M323.973 137.695 C 323.973 138.098,325.124 139.187,325.331 138.980 C 325.427 138.883,325.161 138.492,324.740 138.111 C 324.318 137.730,323.973 137.542,323.973 137.695 M326.648 140.461 C 326.648 140.678,326.991 141.167,327.412 141.547 C 327.832 141.928,328.176 142.119,328.176 141.973 C 328.176 141.826,327.832 141.337,327.412 140.886 C 326.991 140.435,326.648 140.244,326.648 140.461 M332.856 146.957 C 334.904 148.982,336.581 150.754,336.581 150.895 C 336.581 151.245,338.687 153.582,339.003 153.582 C 339.593 153.582,339.190 152.848,338.475 152.622 C 338.015 152.475,337.605 151.922,337.475 151.270 C 337.353 150.663,336.958 150.072,336.597 149.957 C 336.236 149.843,334.517 148.290,332.776 146.508 C 331.036 144.725,329.504 143.269,329.372 143.271 C 329.239 143.274,330.807 144.933,332.856 146.957 M155.492 146.171 C 155.492 146.867,156.715 147.543,157.140 147.083 C 157.491 146.703,157.486 146.653,157.116 146.862 C 156.853 147.011,156.638 146.968,156.638 146.768 C 156.638 146.568,156.380 146.306,156.065 146.185 C 155.750 146.064,155.492 146.058,155.492 146.171 M157.882 148.629 C 158.139 149.042,158.475 149.379,158.628 149.379 C 159.090 149.379,158.529 148.307,157.951 148.086 C 157.508 147.916,157.496 148.011,157.882 148.629 M161.396 155.274 C 161.386 156.339,161.442 156.910,161.519 156.543 C 161.597 156.175,161.820 155.874,162.015 155.874 C 162.536 155.874,162.445 154.368,161.891 153.814 C 161.509 153.432,161.410 153.725,161.396 155.274 M112.958 154.218 C 112.496 154.680,112.692 155.788,113.276 156.012 C 113.706 156.177,113.849 155.949,113.849 155.098 C 113.849 154.013,113.504 153.672,112.958 154.218 M339.924 155.745 C 340.186 155.851,340.401 156.216,340.401 156.555 C 340.401 157.047,340.498 157.076,340.876 156.699 C 341.367 156.207,340.709 155.472,339.828 155.528 C 339.618 155.541,339.661 155.639,339.924 155.745 M245.654 156.256 C 245.351 156.443,245.230 156.723,245.385 156.878 C 245.540 157.033,245.868 156.960,246.113 156.714 C 246.690 156.137,246.368 155.815,245.654 156.256 M340.783 157.575 C 340.783 158.036,341.705 159.694,341.961 159.694 C 342.122 159.694,341.996 159.179,341.681 158.548 C 341.168 157.519,340.783 157.102,340.783 157.575 M151.095 168.194 C 146.054 173.289,144.508 174.935,147.660 171.852 C 150.812 168.769,154.766 164.901,156.448 163.257 C 159.384 160.386,160.716 158.930,160.407 158.930 C 160.327 158.930,156.137 163.099,151.095 168.194 M227.698 163.515 C 227.698 163.756,224.363 163.928,218.625 163.980 C 212.297 164.038,211.112 164.105,214.709 164.199 C 221.626 164.380,235.339 163.897,235.339 163.473 C 235.339 163.286,233.620 163.133,231.519 163.133 C 229.226 163.133,227.698 163.286,227.698 163.515 M203.884 163.770 C 203.358 164.295,203.657 165.043,204.394 165.043 C 204.814 165.043,205.158 164.799,205.158 164.502 C 205.158 164.204,205.372 163.874,205.635 163.768 C 205.898 163.662,205.669 163.562,205.126 163.545 C 204.583 163.528,204.024 163.629,203.884 163.770 M211.098 165.200 C 211.503 165.497,211.969 165.657,212.132 165.556 C 212.644 165.239,212.026 164.661,211.175 164.661 C 210.380 164.661,210.378 164.674,211.098 165.200 M216.810 165.293 C 217.440 165.378,218.343 165.644,218.815 165.883 C 219.288 166.122,219.789 166.203,219.929 166.062 C 220.392 165.600,219.784 165.380,217.710 165.257 C 216.584 165.191,216.180 165.207,216.810 165.293 M225.597 166.087 C 226.017 166.192,226.473 166.455,226.609 166.671 C 226.745 166.887,227.170 166.944,227.553 166.797 C 228.541 166.418,227.515 165.806,225.979 165.857 C 225.170 165.884,225.058 165.952,225.597 166.087 M122.636 166.730 C 122.636 167.133,123.787 168.222,123.994 168.015 C 124.090 167.919,123.824 167.528,123.403 167.146 C 122.981 166.765,122.636 166.578,122.636 166.730 M234.100 166.825 C 234.364 166.931,234.483 167.176,234.364 167.368 C 234.245 167.560,234.502 167.717,234.934 167.717 C 235.379 167.717,235.721 167.468,235.721 167.144 C 235.721 166.766,235.363 166.581,234.670 166.601 C 234.093 166.618,233.836 166.719,234.100 166.825 M239.833 167.223 C 240.308 167.315,240.995 167.311,241.361 167.216 C 241.726 167.120,241.337 167.045,240.497 167.050 C 239.656 167.054,239.357 167.132,239.833 167.223 M124.546 168.640 C 124.546 169.043,125.697 170.132,125.904 169.925 C 126.000 169.829,125.734 169.438,125.313 169.057 C 124.891 168.675,124.546 168.488,124.546 168.640 M344.604 169.005 C 344.604 169.633,345.290 170.215,345.630 169.875 C 345.746 169.759,345.562 169.386,345.222 169.045 C 344.688 168.511,344.604 168.506,344.604 169.005 M244.075 169.819 C 244.243 170.467,244.672 171.022,245.063 171.098 C 245.613 171.204,245.663 171.125,245.309 170.716 C 245.065 170.432,244.620 169.857,244.321 169.436 C 243.817 168.727,243.799 168.754,244.075 169.819 M129.167 173.273 C 129.202 173.628,132.569 176.765,132.569 176.442 C 132.569 176.354,131.796 175.522,130.850 174.594 C 129.904 173.666,129.147 173.072,129.167 173.273 M345.374 176.959 C 345.378 178.903,345.492 179.578,345.750 179.179 C 346.238 178.423,346.238 174.705,345.750 174.403 C 345.508 174.254,345.370 175.194,345.374 176.959 M48.520 175.931 C 48.520 176.175,49.988 177.650,50.231 177.650 C 50.331 177.650,50.218 177.221,49.978 176.695 C 49.612 175.892,48.520 175.320,48.520 175.931 M244.515 180.989 C 243.814 181.264,242.810 182.238,243.239 182.226 C 243.412 182.222,243.983 181.882,244.508 181.471 C 245.492 180.701,245.493 180.605,244.515 180.989 M238.395 183.381 C 238.395 183.591,238.109 183.763,237.759 183.763 C 237.408 183.763,237.224 183.865,237.348 183.989 C 237.667 184.308,239.160 183.786,239.160 183.355 C 239.160 183.159,238.988 182.999,238.777 182.999 C 238.567 182.999,238.395 183.171,238.395 183.381 M343.983 187.380 C 343.864 187.688,343.856 188.161,343.964 188.431 C 344.073 188.700,344.175 188.548,344.191 188.093 C 344.208 187.638,344.436 187.178,344.699 187.073 C 345.073 186.922,345.071 186.873,344.687 186.850 C 344.418 186.833,344.101 187.072,343.983 187.380 M236.863 188.152 C 237.123 188.464,237.235 188.980,237.113 189.298 C 236.977 189.652,237.108 189.876,237.452 189.876 C 238.129 189.876,238.136 189.798,237.570 188.557 C 237.326 188.021,236.961 187.584,236.759 187.584 C 236.557 187.584,236.604 187.839,236.863 188.152 M92.481 192.599 C 92.448 193.380,93.441 194.264,93.764 193.741 C 93.891 193.535,93.821 193.259,93.607 193.127 C 93.393 192.995,93.207 193.026,93.192 193.196 C 93.177 193.366,93.017 193.161,92.837 192.741 C 92.584 192.153,92.502 192.120,92.481 192.599 M95.129 193.505 C 95.129 193.855,95.314 194.080,95.540 194.005 C 95.766 193.930,95.950 193.705,95.950 193.505 C 95.950 193.306,95.766 193.081,95.540 193.005 C 95.314 192.930,95.129 193.155,95.129 193.505 M238.395 194.460 C 238.395 195.301,238.567 195.989,238.777 195.989 C 238.988 195.989,239.160 195.301,239.160 194.460 C 239.160 193.620,238.988 192.932,238.777 192.932 C 238.567 192.932,238.395 193.620,238.395 194.460 M340.033 197.110 C 339.538 198.034,339.535 198.281,340.019 198.281 C 340.229 198.281,340.401 197.951,340.401 197.549 C 340.401 197.146,340.616 196.730,340.879 196.624 C 341.239 196.478,341.242 196.423,340.892 196.401 C 340.637 196.384,340.250 196.703,340.033 197.110 M238.113 197.344 C 237.812 197.671,237.778 197.944,238.020 198.094 C 238.229 198.223,238.507 198.053,238.636 197.715 C 238.952 196.893,238.696 196.711,238.113 197.344 M236.707 199.632 C 236.553 200.246,236.237 200.561,235.845 200.492 C 235.505 200.431,235.152 200.597,235.060 200.860 C 234.968 201.122,235.139 201.337,235.439 201.337 C 236.061 201.337,237.249 200.147,237.249 199.524 C 237.249 199.296,237.464 199.022,237.727 198.916 C 238.029 198.794,237.974 198.712,237.577 198.693 C 237.211 198.675,236.849 199.066,236.707 199.632 M338.762 199.427 C 338.652 199.847,338.718 200.191,338.909 200.191 C 339.099 200.191,339.255 199.947,339.255 199.650 C 339.255 199.352,339.470 199.022,339.733 198.916 C 340.036 198.794,339.982 198.712,339.586 198.693 C 339.243 198.676,338.872 199.007,338.762 199.427 M336.199 202.483 C 336.199 202.693,336.457 202.865,336.772 202.865 C 337.087 202.865,337.345 202.693,337.345 202.483 C 337.345 202.273,337.087 202.101,336.772 202.101 C 336.457 202.101,336.199 202.273,336.199 202.483 M122.254 204.621 C 122.254 204.852,128.712 211.252,130.760 213.050 C 131.502 213.702,132.411 214.694,132.778 215.256 C 133.193 215.888,133.583 216.140,133.804 215.919 C 134.025 215.698,132.117 213.529,128.781 210.210 C 124.003 205.456,122.254 203.959,122.254 204.621 M236.485 207.090 C 236.485 207.772,236.644 208.161,236.867 208.023 C 237.077 207.893,237.249 207.367,237.249 206.854 C 237.249 206.341,237.077 205.922,236.867 205.922 C 236.657 205.922,236.485 206.448,236.485 207.090 M236.202 209.569 C 235.901 209.896,235.868 210.170,236.110 210.319 C 236.319 210.449,236.597 210.278,236.726 209.941 C 237.042 209.118,236.785 208.937,236.202 209.569 M234.107 212.175 C 233.819 212.462,233.205 212.818,232.742 212.965 C 232.275 213.113,231.901 213.546,231.901 213.939 C 231.901 214.327,231.686 214.722,231.423 214.816 C 231.160 214.909,231.042 215.092,231.160 215.221 C 231.277 215.350,232.216 214.600,233.246 213.554 C 234.277 212.508,235.009 211.652,234.874 211.652 C 234.740 211.652,234.394 211.888,234.107 212.175 M230.755 217.319 C 230.755 217.775,230.583 218.147,230.372 218.147 C 230.162 218.147,229.990 218.319,229.990 218.529 C 229.990 218.739,230.159 218.911,230.365 218.911 C 230.808 218.911,231.335 217.072,230.991 216.728 C 230.861 216.598,230.755 216.864,230.755 217.319 M133.839 218.329 C 133.788 219.330,133.881 219.551,134.221 219.233 C 134.811 218.681,134.904 217.000,134.344 217.003 C 134.103 217.004,133.876 217.600,133.839 218.329 M91.982 219.866 C 90.569 221.232,89.163 222.350,88.858 222.350 C 88.553 222.350,88.183 222.736,88.035 223.209 C 87.888 223.682,87.575 224.195,87.341 224.349 C 87.086 224.517,87.072 224.632,87.305 224.636 C 87.519 224.639,89.321 223.009,91.309 221.012 C 95.410 216.894,95.872 216.108,91.982 219.866 M165.215 225.409 C 161.002 229.610,157.651 233.047,157.768 233.047 C 157.886 233.047,161.418 229.608,165.616 225.406 C 169.815 221.203,173.165 217.766,173.062 217.768 C 172.959 217.769,169.428 221.207,165.215 225.409 M132.951 220.432 C 132.951 220.639,132.350 221.427,131.614 222.184 C 130.340 223.497,130.076 223.878,130.441 223.878 C 130.804 223.878,133.333 221.277,133.333 220.904 C 133.333 220.683,133.548 220.416,133.811 220.310 C 134.096 220.195,134.019 220.105,133.620 220.087 C 133.252 220.071,132.951 220.226,132.951 220.432 M103.358 222.791 C 104.190 223.769,105.115 224.586,105.412 224.606 C 105.710 224.626,105.879 224.599,105.787 224.546 C 105.696 224.494,104.772 223.677,103.733 222.732 L 101.846 221.012 103.358 222.791 M87.393 227.187 C 87.655 227.293,87.870 227.598,87.870 227.865 C 87.870 228.408,92.795 233.515,94.216 234.447 C 95.608 235.359,95.305 234.517,93.696 233.007 C 92.908 232.267,91.263 230.598,90.040 229.298 C 88.817 227.998,87.613 226.948,87.365 226.964 C 87.048 226.986,87.056 227.051,87.393 227.187 M101.051 231.137 C 99.379 232.818,98.121 234.193,98.255 234.193 C 98.501 234.193,100.740 232.030,103.131 229.483 C 105.538 226.919,104.135 228.034,101.051 231.137 M230.603 232.057 C 230.727 232.381,230.494 232.696,230.018 232.847 C 229.301 233.075,228.882 233.811,229.469 233.811 C 229.735 233.811,231.519 231.966,231.519 231.690 C 231.519 231.596,231.266 231.519,230.958 231.519 C 230.632 231.519,230.483 231.744,230.603 232.057 M212.034 236.103 C 212.034 236.313,211.748 236.485,211.398 236.485 C 211.047 236.485,210.868 236.592,210.998 236.722 C 211.342 237.066,213.181 236.538,213.181 236.096 C 213.181 235.890,212.923 235.721,212.607 235.721 C 212.292 235.721,212.034 235.893,212.034 236.103 M219.675 236.059 C 219.675 236.470,220.833 236.803,221.490 236.582 C 222.396 236.277,221.964 235.721,220.821 235.721 C 220.191 235.721,219.675 235.873,219.675 236.059 M201.719 240.196 C 201.719 240.467,201.870 240.688,202.054 240.688 C 202.239 240.688,202.573 240.467,202.797 240.196 C 203.106 239.825,203.024 239.705,202.462 239.705 C 202.054 239.705,201.719 239.926,201.719 240.196 M158.188 240.497 C 158.490 240.917,159.046 241.545,159.423 241.892 C 159.908 242.340,159.970 242.570,159.633 242.682 C 159.268 242.804,159.264 242.905,159.618 243.124 C 159.870 243.279,160.076 243.219,160.076 242.989 C 160.076 242.759,160.480 242.964,160.973 243.444 C 161.582 244.037,161.735 244.418,161.451 244.633 C 161.182 244.835,161.237 244.892,161.604 244.792 C 162.324 244.596,172.401 254.735,172.051 255.303 C 171.895 255.555,171.988 255.590,172.301 255.397 C 172.615 255.203,172.991 255.350,173.315 255.793 C 173.672 256.281,173.812 256.328,173.772 255.947 C 173.740 255.644,170.097 251.872,165.676 247.564 C 161.255 243.257,157.885 240.076,158.188 240.497 M198.498 244.169 C 198.643 244.402,198.524 244.744,198.234 244.927 C 197.873 245.156,197.854 245.262,198.172 245.266 C 198.427 245.270,198.820 244.928,199.045 244.508 C 199.374 243.893,199.335 243.744,198.845 243.744 C 198.495 243.744,198.348 243.925,198.498 244.169 M196.848 250.110 C 196.195 250.373,196.209 253.915,196.863 254.166 C 197.227 254.306,197.372 253.767,197.418 252.106 C 197.452 250.869,197.446 249.870,197.403 249.887 C 197.361 249.903,197.111 250.004,196.848 250.110 M197.377 256.991 C 197.615 257.165,197.905 257.650,198.021 258.071 C 198.186 258.673,198.216 258.639,198.160 257.910 C 198.122 257.401,197.832 256.915,197.517 256.830 C 197.138 256.728,197.091 256.782,197.377 256.991 M200.478 263.863 C 200.740 263.969,200.955 264.300,200.955 264.597 C 200.955 264.895,201.145 265.138,201.378 265.138 C 201.611 265.138,201.697 264.867,201.569 264.534 C 201.442 264.202,201.337 263.858,201.337 263.770 C 201.337 263.682,201.036 263.624,200.669 263.640 C 200.269 263.658,200.192 263.748,200.478 263.863 M262.160 277.095 C 256.428 282.830,251.873 287.671,252.039 287.853 C 252.204 288.035,252.150 288.075,251.918 287.943 C 251.391 287.643,249.744 289.338,250.140 289.774 C 250.299 289.950,250.246 289.990,250.022 289.862 C 249.798 289.735,247.219 292.037,244.291 294.977 C 240.848 298.437,239.329 300.190,239.991 299.944 C 241.133 299.518,249.920 290.926,249.570 290.576 C 249.448 290.454,249.615 290.353,249.943 290.353 C 250.270 290.353,250.646 289.924,250.778 289.398 C 250.932 288.782,251.286 288.443,251.774 288.443 C 252.190 288.443,252.531 288.201,252.531 287.904 C 252.531 287.094,256.482 283.207,257.128 283.383 C 257.491 283.481,257.541 283.423,257.270 283.219 C 256.984 283.004,257.128 282.633,257.720 282.057 C 258.266 281.526,258.644 281.377,258.737 281.657 C 258.849 281.990,258.957 281.987,259.169 281.643 C 259.325 281.391,259.265 281.184,259.035 281.184 C 258.805 281.184,259.010 280.781,259.490 280.288 C 260.083 279.678,260.464 279.525,260.679 279.810 C 260.881 280.079,260.937 280.023,260.835 279.656 C 260.741 279.316,262.086 277.660,264.149 275.577 C 271.624 268.031,272.943 266.667,272.767 266.667 C 272.666 266.667,267.893 271.359,262.160 277.095 M206.304 270.105 C 206.304 270.315,206.639 270.487,207.049 270.487 C 207.459 270.487,207.969 270.788,208.183 271.156 C 208.398 271.523,208.578 271.619,208.584 271.368 C 208.596 270.913,207.162 269.723,206.601 269.723 C 206.437 269.723,206.304 269.895,206.304 270.105 M209.933 272.472 C 210.353 272.710,210.783 273.018,210.888 273.157 C 211.117 273.457,212.416 273.965,212.416 273.754 C 212.416 273.519,209.879 272.014,209.506 272.027 C 209.321 272.033,209.513 272.233,209.933 272.472 M137.918 276.059 C 137.918 276.391,138.122 276.595,138.372 276.512 C 139.080 276.276,139.197 275.454,138.523 275.454 C 138.190 275.454,137.918 275.726,137.918 276.059 M141.564 275.809 C 141.303 276.232,141.905 276.688,142.258 276.335 C 142.621 275.971,142.554 275.454,142.143 275.454 C 141.945 275.454,141.684 275.614,141.564 275.809 M217.001 276.982 C 217.001 277.192,217.431 277.364,217.956 277.364 C 218.481 277.364,218.911 277.564,218.911 277.810 C 218.911 278.055,219.040 278.127,219.197 277.969 C 219.528 277.639,218.242 276.600,217.501 276.600 C 217.226 276.600,217.001 276.772,217.001 276.982 M221.585 279.656 C 221.585 279.866,221.838 280.038,222.147 280.038 C 222.456 280.038,223.574 280.926,224.631 282.011 C 225.688 283.097,226.651 283.887,226.771 283.767 C 226.972 283.566,226.236 282.799,223.381 280.235 C 222.259 279.228,221.585 279.011,221.585 279.656 M198.130 282.553 C 197.988 282.925,198.073 283.100,198.352 283.007 C 198.923 282.817,199.238 281.948,198.736 281.948 C 198.530 281.948,198.258 282.221,198.130 282.553 M202.483 283.095 C 202.483 283.305,202.700 283.477,202.964 283.477 C 203.229 283.477,203.660 283.820,203.923 284.241 C 204.185 284.661,204.603 285.005,204.851 285.005 C 205.099 285.005,204.925 284.654,204.466 284.226 C 204.006 283.797,203.629 283.282,203.629 283.080 C 203.629 282.878,203.372 282.713,203.056 282.713 C 202.741 282.713,202.483 282.884,202.483 283.095 M205.733 286.153 C 206.114 286.575,206.505 286.841,206.602 286.745 C 206.808 286.538,205.719 285.387,205.317 285.387 C 205.164 285.387,205.351 285.732,205.733 286.153 M207.643 288.063 C 208.024 288.485,208.415 288.751,208.512 288.655 C 208.719 288.448,207.630 287.297,207.227 287.297 C 207.074 287.297,207.262 287.642,207.643 288.063 M209.553 289.974 C 209.935 290.395,210.326 290.661,210.422 290.565 C 210.629 290.358,209.540 289.207,209.137 289.207 C 208.984 289.207,209.172 289.552,209.553 289.974 M230.333 291.085 C 230.626 291.270,230.766 291.683,230.643 292.002 C 230.520 292.324,230.665 292.676,230.970 292.793 C 231.621 293.043,231.630 292.987,231.146 291.715 C 230.941 291.176,230.554 290.738,230.286 290.741 C 229.926 290.746,229.938 290.835,230.333 291.085 M216.619 297.039 C 219.871 300.296,222.617 302.961,222.722 302.961 C 222.827 302.961,220.253 300.296,217.001 297.039 C 213.749 293.782,211.003 291.117,210.897 291.117 C 210.792 291.117,213.367 293.782,216.619 297.039 M231.137 294.742 C 231.137 294.880,231.413 295.269,231.751 295.607 C 232.315 296.171,232.354 296.164,232.228 295.516 C 232.102 294.863,231.137 294.179,231.137 294.742 M139.064 300.565 C 139.379 300.685,139.766 300.972,139.924 301.203 C 140.132 301.509,140.288 301.509,140.497 301.203 C 140.654 300.972,141.041 300.685,141.356 300.565 C 141.671 300.445,141.156 300.347,140.210 300.347 C 139.265 300.347,138.749 300.445,139.064 300.565 M235.808 302.996 C 235.331 303.177,234.840 303.587,234.717 303.907 C 234.594 304.227,234.254 304.489,233.961 304.489 C 233.668 304.489,233.429 304.661,233.429 304.871 C 233.429 305.520,234.161 305.293,234.664 304.489 C 234.926 304.069,235.433 303.725,235.790 303.725 C 236.393 303.725,237.114 303.064,236.810 302.789 C 236.736 302.722,236.286 302.816,235.808 302.996 M224.296 305.635 C 224.261 306.445,224.925 307.390,225.279 307.036 C 225.442 306.873,225.391 306.620,225.166 306.474 C 224.941 306.328,224.658 305.950,224.538 305.635 C 224.344 305.126,224.317 305.126,224.296 305.635 M174.212 306.781 C 173.909 306.969,173.788 307.249,173.943 307.404 C 174.098 307.559,174.425 307.485,174.670 307.240 C 175.248 306.662,174.926 306.340,174.212 306.781 M173.830 308.651 C 173.830 308.838,174.088 309.091,174.403 309.212 C 174.752 309.346,174.976 309.212,174.976 308.871 C 174.976 308.562,174.718 308.309,174.403 308.309 C 174.088 308.309,173.830 308.463,173.830 308.651 M224.442 309.102 C 224.303 309.538,224.292 309.997,224.416 310.121 C 224.540 310.245,224.642 310.060,224.642 309.710 C 224.642 309.360,224.814 309.074,225.024 309.074 C 225.234 309.074,225.406 308.902,225.406 308.691 C 225.406 307.994,224.698 308.296,224.442 309.102 M217.565 317.574 L 214.518 320.726 217.670 317.678 C 220.597 314.848,220.996 314.422,220.717 314.422 C 220.659 314.422,219.241 315.840,217.565 317.574 M207.235 327.889 L 206.113 329.131 207.354 328.009 C 208.037 327.392,208.596 326.833,208.596 326.767 C 208.596 326.472,208.281 326.732,207.235 327.889 M195.224 332.022 C 195.224 332.256,195.550 332.326,195.989 332.187 C 196.427 332.048,196.753 332.119,196.753 332.352 C 196.753 332.577,196.946 332.760,197.181 332.760 C 197.478 332.760,197.463 332.583,197.135 332.187 C 196.589 331.530,195.224 331.412,195.224 332.022 M198.130 332.919 C 198.258 333.252,198.530 333.524,198.736 333.524 C 199.238 333.524,198.923 332.656,198.352 332.466 C 198.073 332.373,197.988 332.547,198.130 332.919 " stroke="none" fill="#4c447e" fill-rule="evenodd"></path></g></svg>