<svg id="svg" version="1.1" xmlns="http://www.w3.org/2000/svg" xmlns:xlink="http://www.w3.org/1999/xlink" width="400" height="399.3174061433447" viewBox="0, 0, 400,399.3174061433447"><g id="svgg"><path id="path0" d="M143.166 114.761 L 140.444 117.577 143.259 114.854 C 144.808 113.357,146.075 112.090,146.075 112.039 C 146.075 111.790,145.695 112.146,143.166 114.761 M151.187 123.123 L 148.294 126.109 151.280 123.216 C 154.053 120.528,154.422 120.137,154.173 120.137 C 154.122 120.137,152.778 121.480,151.187 123.123 M271.331 128.840 C 272.351 129.872,273.262 130.717,273.356 130.717 C 273.449 130.717,272.692 129.872,271.672 128.840 C 270.653 127.807,269.742 126.962,269.648 126.962 C 269.554 126.962,270.311 127.807,271.331 128.840 M207.594 138.135 C 208.485 138.205,209.945 138.205,210.836 138.135 C 211.728 138.065,210.998 138.007,209.215 138.007 C 207.432 138.007,206.702 138.065,207.594 138.135 M161.945 141.980 C 163.815 143.857,165.422 145.392,165.516 145.392 C 165.610 145.392,164.157 143.857,162.287 141.980 C 160.417 140.102,158.810 138.567,158.716 138.567 C 158.622 138.567,160.075 140.102,161.945 141.980 M126.109 142.321 C 126.842 143.072,127.519 143.686,127.613 143.686 C 127.707 143.686,127.184 143.072,126.451 142.321 C 125.717 141.570,125.041 140.956,124.947 140.956 C 124.853 140.956,125.376 141.570,126.109 142.321 M171.830 143.771 L 170.137 145.563 171.928 143.869 C 172.914 142.938,173.720 142.132,173.720 142.078 C 173.720 141.823,173.404 142.106,171.830 143.771 M141.809 151.536 C 142.923 152.662,143.912 153.584,144.006 153.584 C 144.100 153.584,143.265 152.662,142.150 151.536 C 141.036 150.410,140.047 149.488,139.953 149.488 C 139.859 149.488,140.694 150.410,141.809 151.536 M258.531 173.805 L 244.198 188.225 258.618 173.892 C 272.020 160.570,273.191 159.386,272.951 159.386 C 272.903 159.386,266.414 165.875,258.531 173.805 M148.109 167.662 C 148.945 168.554,149.675 169.283,149.730 169.283 C 149.986 169.283,149.715 168.977,148.208 167.563 L 146.587 166.041 148.109 167.662 M182.423 170.648 C 180.177 172.901,178.415 174.744,178.509 174.744 C 178.603 174.744,180.518 172.901,182.765 170.648 C 185.011 168.396,186.773 166.553,186.679 166.553 C 186.585 166.553,184.670 168.396,182.423 170.648 M194.534 182.850 L 190.273 187.201 194.625 182.940 C 198.667 178.982,199.131 178.498,198.886 178.498 C 198.836 178.498,196.878 180.456,194.534 182.850 M195.045 205.205 L 191.638 208.703 195.137 205.297 C 197.061 203.423,198.635 201.849,198.635 201.798 C 198.635 201.551,198.209 201.956,195.045 205.205 M209.044 207.850 C 211.291 210.102,213.206 211.945,213.300 211.945 C 213.394 211.945,211.632 210.102,209.386 207.850 C 207.139 205.597,205.224 203.754,205.130 203.754 C 205.036 203.754,206.798 205.597,209.044 207.850 M165.358 207.850 C 166.851 209.352,168.150 210.580,168.243 210.580 C 168.337 210.580,167.193 209.352,165.700 207.850 C 164.207 206.348,162.909 205.119,162.815 205.119 C 162.721 205.119,163.865 206.348,165.358 207.850 M172.002 208.788 L 170.137 210.751 172.099 208.885 C 173.922 207.152,174.218 206.826,173.964 206.826 C 173.911 206.826,173.028 207.709,172.002 208.788 M208.698 221.587 L 204.266 226.109 208.788 221.677 C 212.989 217.560,213.465 217.065,213.220 217.065 C 213.171 217.065,211.136 219.100,208.698 221.587 M246.906 276.792 C 246.906 281.578,246.954 283.537,247.013 281.143 C 247.071 278.750,247.071 274.834,247.013 272.440 C 246.954 270.047,246.906 272.005,246.906 276.792 M186.433 271.586 C 188.451 271.646,191.753 271.646,193.771 271.586 C 195.789 271.525,194.138 271.476,190.102 271.476 C 186.067 271.476,184.416 271.525,186.433 271.586 M205.609 271.779 C 205.514 272.025,205.481 273.983,205.534 276.130 L 205.631 280.034 212.543 280.045 L 219.454 280.056 212.628 279.953 L 205.802 279.849 205.802 275.767 L 205.802 271.685 213.567 271.587 L 221.331 271.488 213.556 271.410 C 207.401 271.347,205.745 271.424,205.609 271.779 M205.594 288.055 C 205.594 290.589,205.648 291.625,205.714 290.358 C 205.780 289.091,205.780 287.018,205.714 285.751 C 205.648 284.484,205.594 285.520,205.594 288.055 M186.092 284.213 C 187.922 284.275,190.917 284.275,192.747 284.213 C 194.578 284.152,193.080 284.102,189.420 284.102 C 185.759 284.102,184.262 284.152,186.092 284.213 M238.311 292.727 C 238.639 292.813,239.177 292.813,239.505 292.727 C 239.834 292.641,239.565 292.571,238.908 292.571 C 238.251 292.571,237.982 292.641,238.311 292.727 M204.565 317.235 C 204.565 319.300,204.622 320.101,204.689 319.015 C 204.757 317.929,204.757 316.239,204.688 315.261 C 204.619 314.282,204.564 315.171,204.565 317.235 M330.174 319.454 C 330.174 322.739,330.226 324.083,330.288 322.440 C 330.351 320.798,330.351 318.110,330.288 316.468 C 330.226 314.825,330.174 316.169,330.174 319.454 M340.072 319.454 C 340.072 322.739,340.123 324.083,340.186 322.440 C 340.248 320.798,340.248 318.110,340.186 316.468 C 340.123 314.825,340.072 316.169,340.072 319.454 M61.571 320.137 C 61.571 323.046,61.623 324.236,61.687 322.782 C 61.751 321.327,61.751 318.946,61.687 317.491 C 61.623 316.037,61.571 317.227,61.571 320.137 M214.127 320.819 C 214.127 323.353,214.181 324.390,214.246 323.123 C 214.312 321.856,214.312 319.782,214.246 318.515 C 214.181 317.248,214.127 318.285,214.127 320.819 M71.069 319.454 C 71.069 320.111,71.139 320.380,71.225 320.051 C 71.311 319.723,71.311 319.185,71.225 318.857 C 71.139 318.528,71.069 318.797,71.069 319.454 M254.375 323.208 C 254.375 324.428,254.437 324.927,254.513 324.317 C 254.589 323.707,254.589 322.709,254.513 322.099 C 254.437 321.489,254.375 321.988,254.375 323.208 " stroke="none" fill="#8884ac" fill-rule="evenodd"></path><path id="path1" d="M210.510 75.284 C 215.382 80.314,217.105 90.024,214.474 97.625 L 213.583 100.199 214.496 102.367 C 215.137 103.890,215.294 104.607,215.022 104.775 C 214.809 104.907,211.659 106.148,208.021 107.534 C 204.384 108.920,201.459 110.105,201.521 110.168 C 201.584 110.230,205.529 109.895,210.288 109.423 C 215.048 108.952,219.766 108.502,220.774 108.425 L 222.606 108.284 223.432 110.088 C 227.331 118.604,227.327 137.763,223.427 137.930 C 222.837 137.955,218.131 138.070,212.969 138.186 L 203.584 138.396 213.699 139.216 L 223.813 140.036 225.047 141.908 C 226.396 143.957,226.577 145.157,225.723 146.377 C 225.145 147.203,222.103 148.796,221.095 148.802 C 220.158 148.808,220.150 149.203,221.035 151.712 C 221.985 154.409,221.911 155.629,220.705 157.135 C 219.965 158.059,219.943 158.216,220.368 159.452 C 220.981 161.230,220.656 162.354,219.045 164.032 C 217.377 165.769,216.926 167.438,217.605 169.362 C 219.347 174.301,217.380 176.408,210.847 176.597 C 202.491 176.839,199.401 179.316,199.726 185.511 C 199.980 190.351,203.075 194.096,209.827 197.734 C 214.129 200.053,215.159 200.997,216.512 203.863 C 217.874 206.748,218.936 210.901,218.627 212.134 C 218.422 212.949,218.458 212.979,219.187 212.607 C 220.259 212.059,272.447 159.949,273.942 157.934 C 278.925 151.215,279.575 142.786,275.726 134.812 L 274.325 131.911 246.804 104.409 C 216.636 74.262,217.882 75.364,212.287 73.884 C 208.644 72.920,208.404 73.110,210.510 75.284 M198.445 77.617 C 197.304 78.111,189.766 85.914,189.354 87.029 C 188.914 88.218,189.568 89.123,194.110 93.601 C 199.949 99.359,199.356 99.368,205.339 93.426 C 211.369 87.438,211.367 88.037,205.375 82.051 C 200.546 77.226,200.063 76.917,198.445 77.617 M172.671 92.017 C 166.364 98.266,166.366 98.033,172.576 104.164 C 178.594 110.105,178.193 110.121,184.556 103.673 C 190.485 97.665,190.509 98.073,183.852 91.553 C 178.178 85.995,178.773 85.970,172.671 92.017 M143.423 114.768 C 139.373 118.835,139.373 118.742,143.436 122.788 C 147.523 126.858,147.437 126.858,151.473 122.742 C 155.456 118.681,155.456 118.806,151.431 114.781 C 147.360 110.710,147.463 110.710,143.423 114.768 M166.724 120.965 C 164.207 122.096,155.290 131.841,155.290 133.460 C 155.290 135.812,165.564 146.075,167.918 146.075 C 170.273 146.075,180.546 135.812,180.546 133.460 C 180.546 131.330,169.681 120.236,167.844 120.491 C 167.791 120.499,167.287 120.712,166.724 120.965 M122.198 142.517 C 120.593 144.257,120.543 143.945,122.836 146.502 C 123.968 147.764,124.463 147.691,126.182 146.004 C 127.978 144.241,127.978 144.222,126.209 142.419 C 124.403 140.579,123.974 140.589,122.198 142.517 M141.865 145.359 C 139.021 148.305,139.028 148.486,142.114 151.478 C 145.200 154.471,144.965 154.473,148.013 151.426 C 151.066 148.372,151.068 148.308,148.195 145.371 C 145.176 142.286,144.833 142.285,141.865 145.359 M154.541 162.732 C 152.173 165.100,151.195 166.317,151.195 166.894 C 151.195 168.051,157.557 174.403,158.716 174.403 C 159.884 174.403,165.850 168.117,165.862 166.873 C 165.872 165.831,159.546 159.386,158.514 159.386 C 158.169 159.386,156.381 160.892,154.541 162.732 M187.543 166.204 C 187.167 166.364,184.887 168.483,182.476 170.913 C 176.515 176.920,176.499 176.358,182.805 182.620 C 189.109 188.880,188.400 188.877,194.611 182.666 C 200.869 176.408,200.848 176.869,195.137 171.077 C 190.125 165.995,189.291 165.460,187.543 166.204 M143.420 168.354 C 140.806 170.992,140.806 171.035,143.439 173.645 C 146.077 176.259,146.120 176.259,148.730 173.626 C 151.345 170.988,151.344 170.945,148.711 168.335 C 146.073 165.720,146.030 165.720,143.420 168.354 M165.636 200.449 C 163.620 202.465,162.799 203.529,162.799 204.125 C 162.799 205.313,168.102 210.580,169.298 210.580 C 170.477 210.580,175.768 205.290,175.768 204.110 C 175.768 202.968,170.423 197.611,169.283 197.611 C 168.724 197.611,167.597 198.488,165.636 200.449 M199.829 201.387 C 198.431 201.798,188.153 212.109,187.769 213.486 C 187.213 215.476,187.811 216.357,193.592 222.061 C 201.237 229.606,200.678 229.616,208.448 221.788 C 213.826 216.370,214.470 215.399,213.949 213.496 C 213.422 211.569,202.063 200.699,200.950 201.055 C 200.897 201.072,200.392 201.221,199.829 201.387 M130.375 268.386 C 121.594 271.301,122.608 279.527,132.148 282.757 C 138.573 284.933,139.932 285.918,139.932 288.396 C 139.932 293.026,132.397 294.013,126.599 290.142 L 124.595 288.803 123.780 290.260 L 122.966 291.717 124.131 292.647 C 130.752 297.930,141.909 296.520,143.671 290.177 C 144.998 285.398,142.922 282.821,135.735 280.328 C 130.055 278.357,128.669 277.274,128.669 274.807 C 128.669 271.358,134.514 270.191,139.679 272.608 L 141.883 273.639 142.635 272.092 C 143.466 270.380,143.451 270.351,141.297 269.384 C 138.117 267.957,133.061 267.495,130.375 268.386 M262.001 268.731 C 258.526 270.199,257.207 271.989,257.215 275.229 C 257.225 279.451,258.901 280.960,266.195 283.318 C 270.770 284.797,272.355 286.117,272.355 288.449 C 272.355 293.182,264.669 294.004,258.716 289.909 L 257.011 288.736 256.298 290.134 C 255.456 291.784,255.713 292.252,258.288 293.761 C 267.797 299.333,279.863 293.238,275.683 284.975 C 274.644 282.922,272.985 281.892,267.954 280.175 C 262.102 278.178,260.341 276.424,261.397 273.645 C 262.445 270.888,268.999 270.567,273.307 273.063 L 274.430 273.713 275.100 272.150 C 275.926 270.222,275.944 270.249,273.126 269.103 C 269.705 267.712,264.803 267.548,262.001 268.731 M152.628 282.098 L 146.469 295.937 148.385 295.835 L 150.301 295.734 151.708 292.491 L 153.115 289.249 160.630 289.157 L 168.145 289.066 169.605 292.485 L 171.065 295.904 172.928 295.904 C 175.212 295.904,175.749 297.677,168.528 281.395 L 162.703 268.259 160.745 268.259 L 158.786 268.259 152.628 282.098 M179.181 282.082 L 179.181 295.904 181.058 295.904 L 182.935 295.904 182.935 289.932 L 182.935 283.959 189.249 283.959 L 195.563 283.959 195.563 282.423 L 195.563 280.887 189.249 280.887 L 182.935 280.887 182.935 276.109 L 182.935 271.331 190.102 271.331 L 197.270 271.331 197.270 269.795 L 197.270 268.259 188.225 268.259 L 179.181 268.259 179.181 282.082 M202.048 282.082 L 202.048 295.904 211.775 295.904 L 221.502 295.904 221.502 294.198 L 221.502 292.491 213.471 292.491 L 205.441 292.491 205.536 287.969 L 205.631 283.447 212.543 283.355 L 219.454 283.262 219.454 281.734 L 219.454 280.205 212.457 280.205 L 205.461 280.205 205.461 275.768 L 205.461 271.331 213.311 271.331 L 221.160 271.331 221.160 269.795 L 221.160 268.259 211.604 268.259 L 202.048 268.259 202.048 282.082 M227.366 278.072 C 227.489 289.159,227.696 290.130,230.543 292.977 C 234.484 296.919,243.440 296.898,247.505 292.938 C 250.158 290.353,250.328 289.503,250.446 278.242 L 250.550 268.259 248.824 268.259 L 247.099 268.259 247.099 277.071 C 247.099 290.260,245.867 292.654,239.078 292.651 C 232.155 292.649,231.043 290.597,230.807 277.389 L 230.644 268.259 228.951 268.259 L 227.257 268.259 227.366 278.072 M163.636 278.669 C 165.095 282.048,166.365 285.004,166.458 285.239 C 166.588 285.570,165.293 285.666,160.650 285.666 L 154.674 285.666 157.604 278.833 C 159.215 275.075,160.634 272.119,160.758 272.263 C 160.882 272.408,162.177 275.290,163.636 278.669 M59.044 314.334 C 59.044 314.903,59.272 315.017,60.410 315.017 L 61.775 315.017 61.775 320.137 C 61.775 325.028,61.805 325.256,62.457 325.256 C 63.113 325.256,63.140 325.028,63.140 319.454 L 63.140 313.652 61.092 313.652 C 59.272 313.652,59.044 313.728,59.044 314.334 M72.498 313.964 C 68.047 315.879,69.016 324.656,73.732 325.138 C 76.989 325.470,79.019 323.280,78.999 319.454 C 78.977 315.205,75.816 312.537,72.498 313.964 M87.713 314.017 C 83.304 315.870,83.824 324.081,88.414 325.089 C 92.194 325.919,94.753 322.642,94.040 317.885 C 93.574 314.776,90.451 312.867,87.713 314.017 M101.024 314.093 C 99.026 315.102,99.090 319.097,101.119 320.070 C 103.766 321.338,106.094 318.213,104.731 315.221 C 104.139 313.922,102.406 313.395,101.024 314.093 M107.953 316.809 C 102.465 324.123,101.689 325.256,102.173 325.256 C 102.444 325.256,104.597 322.645,106.957 319.454 C 109.317 316.263,111.040 313.652,110.785 313.652 C 110.530 313.652,109.256 315.073,107.953 316.809 M129.428 314.375 C 124.136 316.994,126.151 325.256,132.082 325.256 C 133.283 325.256,136.177 324.043,136.177 323.539 C 136.177 322.918,135.468 322.863,134.424 323.403 C 132.712 324.289,130.242 323.915,128.893 322.566 C 125.600 319.273,129.272 313.639,133.659 315.256 C 136.341 316.244,137.261 315.475,134.757 314.339 C 132.838 313.468,131.238 313.479,129.428 314.375 M144.358 314.420 C 142.310 315.454,141.297 317.036,141.297 319.197 C 141.297 326.839,152.289 327.343,152.840 319.726 C 153.170 315.164,148.575 312.290,144.358 314.420 M159.044 319.454 C 159.044 324.384,159.121 325.256,159.556 325.256 C 159.986 325.256,160.070 324.502,160.079 320.563 C 160.092 315.096,160.068 315.096,162.830 320.563 C 164.926 324.712,164.925 324.712,167.406 319.948 L 169.454 316.016 169.549 320.636 C 169.638 324.974,169.685 325.256,170.317 325.256 C 170.960 325.256,170.990 325.001,170.990 319.454 L 170.990 313.652 170.139 313.652 C 169.401 313.652,169.042 314.137,167.424 317.321 C 166.398 319.339,165.418 321.198,165.245 321.453 C 165.017 321.789,164.334 320.783,162.756 317.787 C 159.472 311.554,159.044 311.746,159.044 319.454 M177.816 319.454 C 177.816 325.001,177.845 325.256,178.489 325.256 C 179.121 325.256,179.167 324.974,179.257 320.563 L 179.352 315.870 181.399 319.879 C 183.906 324.785,183.761 324.785,186.405 319.881 L 188.567 315.870 188.662 320.563 C 188.740 324.424,188.846 325.256,189.259 325.256 C 189.681 325.256,189.761 324.334,189.761 319.454 L 189.761 313.652 188.983 313.652 C 188.351 313.652,187.960 314.150,186.906 316.297 C 186.192 317.752,185.219 319.614,184.744 320.435 L 183.880 321.928 181.681 317.790 C 179.789 314.231,179.365 313.652,178.649 313.652 L 177.816 313.652 177.816 319.454 M196.592 317.833 C 196.599 323.705,197.508 325.085,201.365 325.085 C 205.142 325.085,206.094 323.567,206.124 317.491 C 206.142 313.927,206.096 313.652,205.489 313.652 C 204.884 313.652,204.825 313.980,204.721 317.948 C 204.587 323.014,204.071 323.891,201.222 323.891 C 198.477 323.891,197.952 322.924,197.952 317.872 C 197.952 313.879,197.915 313.652,197.270 313.652 C 196.624 313.652,196.587 313.878,196.592 317.833 M212.628 319.454 C 212.628 325.028,212.655 325.256,213.311 325.256 C 213.958 325.256,213.993 325.028,213.993 320.819 C 213.993 318.379,214.108 316.387,214.249 316.392 C 214.390 316.398,215.953 318.394,217.723 320.829 C 222.129 326.890,222.184 326.873,222.184 319.454 C 222.184 313.908,222.155 313.652,221.512 313.652 C 220.881 313.652,220.833 313.934,220.744 318.113 L 220.648 322.575 217.406 318.135 C 212.782 311.803,212.628 311.846,212.628 319.454 M229.352 319.454 C 229.352 325.028,229.378 325.256,230.034 325.256 C 230.690 325.256,230.717 325.028,230.717 319.454 C 230.717 313.879,230.690 313.652,230.034 313.652 C 229.378 313.652,229.352 313.879,229.352 319.454 M235.836 314.334 C 235.836 314.934,236.064 315.017,237.713 315.017 L 239.590 315.017 239.590 320.137 C 239.590 325.028,239.621 325.256,240.273 325.256 C 240.925 325.256,240.956 325.028,240.956 320.137 L 240.956 315.017 242.833 315.017 C 244.482 315.017,244.710 314.934,244.710 314.334 C 244.710 313.687,244.482 313.652,240.273 313.652 C 236.064 313.652,235.836 313.687,235.836 314.334 M248.805 313.876 C 248.805 314.000,249.727 315.677,250.853 317.604 C 252.747 320.844,252.901 321.263,252.901 323.182 C 252.901 325.028,252.976 325.256,253.584 325.256 C 254.187 325.256,254.266 325.028,254.268 323.294 C 254.270 321.507,254.467 320.985,256.476 317.469 C 259.258 312.600,258.434 311.769,255.567 316.552 C 253.506 319.991,253.702 319.990,251.696 316.563 C 250.246 314.084,248.805 312.746,248.805 313.876 M270.307 314.334 C 270.307 314.934,270.535 315.017,272.184 315.017 L 274.061 315.017 274.061 320.137 C 274.061 324.418,274.144 325.256,274.564 325.256 C 274.980 325.256,275.083 324.386,275.162 320.222 L 275.256 315.188 277.048 315.085 C 278.561 314.997,278.840 314.878,278.840 314.317 C 278.840 313.693,278.574 313.652,274.573 313.652 C 270.535 313.652,270.307 313.688,270.307 314.334 M286.833 314.299 C 284.285 315.456,282.914 318.207,283.606 320.775 C 284.959 325.800,291.773 326.814,294.373 322.378 C 297.278 317.421,292.122 311.897,286.833 314.299 M301.024 319.454 C 301.024 325.028,301.051 325.256,301.706 325.256 C 302.280 325.256,302.391 325.024,302.403 323.805 C 302.419 322.252,304.536 319.215,305.052 320.007 C 306.813 322.709,309.142 325.256,309.851 325.256 C 310.453 325.256,310.577 325.146,310.327 324.829 C 310.142 324.595,309.041 323.113,307.880 321.537 L 305.771 318.670 306.720 317.612 C 307.241 317.029,308.279 315.900,309.025 315.102 C 310.339 313.697,310.355 313.652,309.536 313.652 C 308.899 313.652,307.980 314.450,305.802 316.894 C 304.213 318.677,302.795 320.137,302.651 320.137 C 302.507 320.137,302.389 318.677,302.389 316.894 C 302.389 313.879,302.341 313.652,301.706 313.652 C 301.051 313.652,301.024 313.879,301.024 319.454 M316.041 319.454 L 316.041 325.256 320.137 325.256 C 324.005 325.256,324.232 325.218,324.232 324.573 C 324.232 323.936,324.005 323.891,320.819 323.891 L 317.406 323.891 317.406 322.014 L 317.406 320.137 320.307 320.137 C 322.981 320.137,323.208 320.083,323.208 319.454 C 323.208 318.825,322.981 318.771,320.307 318.771 L 317.406 318.771 317.406 316.894 L 317.406 315.017 320.648 315.017 C 323.663 315.017,323.891 314.969,323.891 314.334 C 323.891 313.691,323.663 313.652,319.966 313.652 L 316.041 313.652 316.041 319.454 M330.375 319.454 C 330.375 325.000,330.405 325.256,331.048 325.256 C 331.679 325.256,331.727 324.974,331.816 320.734 L 331.911 316.212 335.267 320.734 C 339.878 326.948,339.932 326.933,339.932 319.454 C 339.932 313.908,339.902 313.652,339.259 313.652 C 338.628 313.652,338.580 313.934,338.491 318.155 L 338.396 322.658 335.032 318.155 C 330.420 311.983,330.375 311.996,330.375 319.454 M103.599 315.172 C 104.716 316.289,104.708 317.849,103.578 318.979 C 102.094 320.462,100.341 319.391,100.341 317.000 C 100.341 314.627,102.079 313.652,103.599 315.172 M76.427 315.623 C 78.196 317.393,78.112 321.884,76.279 323.464 C 73.661 325.722,70.645 322.892,71.089 318.593 C 71.466 314.939,74.214 313.410,76.427 315.623 M91.086 315.232 C 93.380 316.839,93.380 322.069,91.086 323.676 C 89.016 325.126,86.608 323.608,86.193 320.592 C 85.607 316.332,88.357 313.320,91.086 315.232 M149.474 315.575 C 151.954 317.040,152.315 320.462,150.211 322.566 C 147.329 325.447,142.657 323.555,142.601 319.485 C 142.553 316.025,146.467 313.799,149.474 315.575 M292.411 316.185 C 295.342 318.871,293.478 323.891,289.550 323.891 C 285.685 323.891,283.502 319.983,285.589 316.799 C 286.987 314.665,290.416 314.357,292.411 316.185 M109.626 318.780 C 107.830 319.518,107.476 323.272,109.078 324.601 C 110.047 325.406,111.941 325.159,112.843 324.111 C 114.992 321.612,112.558 317.576,109.626 318.780 M111.985 319.759 C 113.591 321.059,112.662 324.573,110.713 324.573 C 109.764 324.573,108.874 323.252,108.874 321.843 C 108.874 319.532,110.424 318.494,111.985 319.759 " stroke="none" fill="#0c0454" fill-rule="evenodd"></path><path id="path2" d="M243.515 101.024 C 255.340 112.850,265.092 122.526,265.186 122.526 C 265.280 122.526,255.681 112.850,243.857 101.024 C 232.032 89.198,222.280 79.522,222.186 79.522 C 222.092 79.522,231.691 89.198,243.515 101.024 M190.767 84.898 L 189.590 86.177 190.870 85.001 C 192.062 83.907,192.307 83.618,192.046 83.618 C 191.989 83.618,191.414 84.194,190.767 84.898 M174.391 90.017 L 172.526 91.980 174.488 90.114 C 175.567 89.088,176.451 88.205,176.451 88.152 C 176.451 87.898,176.124 88.194,174.391 90.017 M170.307 121.609 C 170.307 121.667,170.806 122.166,171.416 122.718 L 172.526 123.720 171.523 122.611 C 170.589 121.577,170.307 121.345,170.307 121.609 M226.386 125.427 C 226.388 126.553,226.451 126.973,226.527 126.359 C 226.603 125.746,226.602 124.824,226.524 124.311 C 226.446 123.798,226.384 124.300,226.386 125.427 M216.980 138.131 C 217.590 138.207,218.588 138.207,219.198 138.131 C 219.808 138.055,219.309 137.993,218.089 137.993 C 216.869 137.993,216.369 138.055,216.980 138.131 M278.236 145.051 C 278.236 145.708,278.306 145.977,278.392 145.648 C 278.478 145.320,278.478 144.782,278.392 144.454 C 278.306 144.125,278.236 144.394,278.236 145.051 M162.799 162.969 C 164.386 164.565,165.761 165.870,165.855 165.870 C 165.949 165.870,164.727 164.565,163.140 162.969 C 161.553 161.374,160.177 160.068,160.083 160.068 C 159.989 160.068,161.211 161.374,162.799 162.969 M163.823 169.795 C 162.994 170.640,162.392 171.331,162.486 171.331 C 162.580 171.331,163.335 170.640,164.164 169.795 C 164.993 168.951,165.594 168.259,165.500 168.259 C 165.407 168.259,164.652 168.951,163.823 169.795 M143.330 173.805 C 144.745 175.312,145.051 175.583,145.051 175.327 C 145.051 175.272,144.322 174.543,143.430 173.706 L 141.809 172.184 143.330 173.805 M199.397 184.983 C 199.397 185.640,199.467 185.909,199.553 185.580 C 199.639 185.252,199.639 184.714,199.553 184.386 C 199.467 184.057,199.397 184.326,199.397 184.983 M223.707 208.618 L 222.014 210.410 223.805 208.716 C 224.791 207.784,225.597 206.978,225.597 206.924 C 225.597 206.669,225.281 206.953,223.707 208.618 M201.862 282.082 C 201.862 289.778,201.907 292.975,201.962 289.187 C 202.017 285.398,202.017 279.101,201.962 275.194 C 201.907 271.286,201.862 274.386,201.862 282.082 M230.864 276.280 C 230.864 280.785,230.913 282.581,230.972 280.271 C 231.031 277.960,231.031 274.274,230.971 272.079 C 230.912 269.885,230.864 271.775,230.864 276.280 M250.660 276.451 C 250.660 281.049,250.708 282.931,250.767 280.631 C 250.826 278.332,250.826 274.569,250.767 272.270 C 250.708 269.970,250.660 271.852,250.660 276.451 M195.661 282.423 C 195.663 283.362,195.730 283.705,195.808 283.186 C 195.886 282.668,195.884 281.900,195.803 281.480 C 195.722 281.060,195.658 281.485,195.661 282.423 M209.130 283.531 C 211.054 283.592,214.202 283.592,216.126 283.531 C 218.050 283.470,216.476 283.420,212.628 283.420 C 208.780 283.420,207.206 283.470,209.130 283.531 M274.211 293.259 L 273.208 294.369 274.317 293.366 C 274.927 292.815,275.427 292.316,275.427 292.257 C 275.427 291.993,275.145 292.225,274.211 293.259 M189.901 319.454 C 189.901 322.739,189.953 324.083,190.015 322.440 C 190.078 320.798,190.078 318.110,190.015 316.468 C 189.953 314.825,189.901 316.169,189.901 319.454 M302.514 316.894 C 302.515 318.771,302.572 319.496,302.641 318.504 C 302.710 317.512,302.710 315.976,302.639 315.091 C 302.569 314.206,302.513 315.017,302.514 316.894 M273.858 320.137 C 273.858 323.046,273.910 324.236,273.974 322.782 C 274.038 321.327,274.038 318.946,273.974 317.491 C 273.910 316.037,273.858 317.227,273.858 320.137 M317.512 316.894 C 317.514 318.020,317.578 318.440,317.653 317.827 C 317.729 317.213,317.728 316.292,317.650 315.779 C 317.572 315.266,317.510 315.768,317.512 316.894 M275.222 320.307 C 275.222 323.123,275.275 324.229,275.339 322.766 C 275.403 321.303,275.403 318.999,275.338 317.647 C 275.274 316.294,275.221 317.491,275.222 320.307 M77.554 319.454 C 77.554 320.111,77.624 320.380,77.710 320.051 C 77.796 319.723,77.796 319.185,77.710 318.857 C 77.624 318.528,77.554 318.797,77.554 319.454 M317.512 322.014 C 317.514 323.140,317.578 323.560,317.653 322.946 C 317.729 322.333,317.728 321.411,317.650 320.898 C 317.572 320.385,317.510 320.887,317.512 322.014 M302.487 323.720 C 302.489 324.659,302.556 325.002,302.634 324.483 C 302.712 323.965,302.710 323.197,302.629 322.777 C 302.548 322.357,302.484 322.782,302.487 323.720 " stroke="none" fill="#473f7c" fill-rule="evenodd"></path><path id="path3" d="M204.949 81.570 C 207.195 83.823,209.110 85.666,209.204 85.666 C 209.298 85.666,207.537 83.823,205.290 81.570 C 203.043 79.317,201.128 77.474,201.035 77.474 C 200.941 77.474,202.702 79.317,204.949 81.570 M194.369 94.198 C 196.050 95.887,197.503 97.270,197.597 97.270 C 197.691 97.270,196.391 95.887,194.710 94.198 C 193.028 92.509,191.576 91.126,191.482 91.126 C 191.388 91.126,192.687 92.509,194.369 94.198 M169.091 95.307 L 168.089 96.416 169.198 95.414 C 169.808 94.863,170.307 94.363,170.307 94.305 C 170.307 94.041,170.026 94.273,169.091 95.307 M185.324 102.901 C 183.926 104.309,182.858 105.461,182.952 105.461 C 183.046 105.461,184.267 104.309,185.666 102.901 C 187.064 101.493,188.131 100.341,188.038 100.341 C 187.944 100.341,186.723 101.493,185.324 102.901 M267.747 125.256 C 268.672 126.195,269.505 126.962,269.599 126.962 C 269.693 126.962,269.013 126.195,268.089 125.256 C 267.164 124.317,266.331 123.549,266.237 123.549 C 266.143 123.549,266.823 124.317,267.747 125.256 M159.380 127.560 L 155.802 131.229 159.471 127.651 C 162.879 124.328,163.295 123.891,163.049 123.891 C 162.998 123.891,161.347 125.542,159.380 127.560 M178.328 129.693 C 179.061 130.444,179.738 131.058,179.831 131.058 C 179.925 131.058,179.402 130.444,178.669 129.693 C 177.936 128.942,177.259 128.328,177.165 128.328 C 177.071 128.328,177.594 128.942,178.328 129.693 M157.167 137.201 C 157.900 137.952,158.577 138.567,158.671 138.567 C 158.765 138.567,158.242 137.952,157.509 137.201 C 156.775 136.451,156.099 135.836,156.005 135.836 C 155.911 135.836,156.434 136.451,157.167 137.201 M177.295 138.311 L 174.915 140.785 177.389 138.405 C 178.750 137.096,179.863 135.983,179.863 135.931 C 179.863 135.680,179.505 136.012,177.295 138.311 M212.884 138.125 C 213.306 138.206,213.997 138.206,214.420 138.125 C 214.842 138.043,214.497 137.977,213.652 137.977 C 212.807 137.977,212.462 138.043,212.884 138.125 M143.499 168.003 L 142.150 169.454 143.601 168.105 C 144.398 167.363,145.051 166.710,145.051 166.654 C 145.051 166.396,144.754 166.654,143.499 168.003 M148.805 173.549 C 147.976 174.394,147.375 175.085,147.469 175.085 C 147.563 175.085,148.318 174.394,149.147 173.549 C 149.976 172.705,150.577 172.014,150.483 172.014 C 150.390 172.014,149.634 172.705,148.805 173.549 M178.498 178.592 C 178.498 178.644,179.689 179.834,181.143 181.237 L 183.788 183.788 181.237 181.143 C 178.868 178.687,178.498 178.343,178.498 178.592 M237.031 195.222 C 233.092 199.164,229.946 202.389,230.040 202.389 C 230.134 202.389,233.433 199.164,237.372 195.222 C 241.311 191.280,244.456 188.055,244.363 188.055 C 244.269 188.055,240.969 191.280,237.031 195.222 M158.843 319.454 C 158.843 322.739,158.895 324.083,158.957 322.440 C 159.020 320.798,159.020 318.110,158.957 316.468 C 158.895 314.825,158.843 316.169,158.843 319.454 M196.373 317.235 C 196.374 319.300,196.430 320.101,196.498 319.015 C 196.566 317.929,196.566 316.239,196.497 315.261 C 196.428 314.282,196.373 315.171,196.373 317.235 M229.151 319.454 C 229.151 322.739,229.202 324.083,229.264 322.440 C 229.327 320.798,229.327 318.110,229.264 316.468 C 229.202 314.825,229.151 316.169,229.151 319.454 M241.092 320.307 C 241.093 323.123,241.145 324.229,241.210 322.766 C 241.274 321.303,241.273 318.999,241.209 317.647 C 241.144 316.294,241.092 317.491,241.092 320.307 M188.527 320.478 C 188.527 322.824,188.582 323.784,188.649 322.611 C 188.715 321.438,188.715 319.518,188.649 318.345 C 188.582 317.172,188.527 318.131,188.527 320.478 " stroke="none" fill="#5c548c" fill-rule="evenodd"></path><path id="path4" d="M171.313 93.089 L 170.137 94.369 171.416 93.192 C 172.120 92.546,172.696 91.970,172.696 91.913 C 172.696 91.652,172.407 91.897,171.313 93.089 M181.552 106.741 L 180.375 108.020 181.655 106.844 C 182.847 105.750,183.092 105.461,182.831 105.461 C 182.774 105.461,182.198 106.037,181.552 106.741 M143.857 123.549 C 144.971 124.676,145.960 125.597,146.054 125.597 C 146.148 125.597,145.312 124.676,144.198 123.549 C 143.083 122.423,142.095 121.502,142.001 121.502 C 141.907 121.502,142.742 122.423,143.857 123.549 M164.145 122.782 L 162.969 124.061 164.249 122.885 C 164.953 122.238,165.529 121.662,165.529 121.605 C 165.529 121.345,165.240 121.590,164.145 122.782 M173.379 124.744 C 174.016 125.401,174.613 125.939,174.707 125.939 C 174.801 125.939,174.357 125.401,173.720 124.744 C 173.083 124.087,172.486 123.549,172.392 123.549 C 172.298 123.549,172.742 124.087,173.379 124.744 M175.085 126.387 C 175.085 126.445,175.584 126.945,176.195 127.496 L 177.304 128.498 176.301 127.389 C 175.367 126.355,175.085 126.123,175.085 126.387 M227.635 204.693 L 225.427 206.997 227.730 204.788 C 228.997 203.573,230.034 202.537,230.034 202.484 C 230.034 202.233,229.687 202.553,227.635 204.693 M159.812 268.163 C 160.328 268.241,161.173 268.241,161.689 268.163 C 162.206 268.084,161.783 268.020,160.751 268.020 C 159.718 268.020,159.296 268.084,159.812 268.163 M183.723 268.173 C 186.316 268.231,190.463 268.231,192.938 268.173 C 195.414 268.115,193.294 268.067,188.225 268.067 C 183.157 268.068,181.131 268.115,183.723 268.173 M206.761 268.173 C 209.448 268.231,213.748 268.231,216.318 268.173 C 218.887 268.115,216.689 268.068,211.433 268.068 C 206.177 268.068,204.075 268.116,206.761 268.173 M228.072 268.163 C 228.588 268.241,229.433 268.241,229.949 268.163 C 230.465 268.084,230.043 268.020,229.010 268.020 C 227.978 268.020,227.555 268.084,228.072 268.163 M247.867 268.163 C 248.383 268.241,249.228 268.241,249.744 268.163 C 250.260 268.084,249.838 268.020,248.805 268.020 C 247.773 268.020,247.351 268.084,247.867 268.163 M186.263 280.800 C 187.999 280.862,190.840 280.862,192.577 280.800 C 194.313 280.738,192.892 280.688,189.420 280.688 C 185.947 280.688,184.526 280.738,186.263 280.800 M222.325 319.454 C 222.325 322.739,222.376 324.083,222.438 322.440 C 222.501 320.798,222.501 318.110,222.438 316.468 C 222.376 314.825,222.325 316.169,222.325 319.454 M160.202 320.819 C 160.202 323.353,160.256 324.390,160.321 323.123 C 160.387 321.856,160.387 319.782,160.321 318.515 C 160.256 317.248,160.202 318.285,160.202 320.819 " stroke="none" fill="#54528c" fill-rule="evenodd"></path></g></svg>